<svg width="266" height="27" viewBox="0 0 266 27" fill="none" xmlns="http://www.w3.org/2000/svg">
<path d="M5.984 26C5.384 26 4.508 26 3.356 26C2.228 26 1.46 25.916 1.052 25.748C0.644 25.58 0.44 25.316 0.44 24.956V2.24C0.44 1.688 1.172 1.256 2.636 0.943999C4.124 0.607999 5.708 0.439999 7.388 0.439999C9.068 0.439999 10.268 0.655999 10.988 1.088C11.708 1.52 12.128 1.976 12.248 2.456L14.696 11.96H15.02L17.324 2.888C17.492 2.24 18.272 1.676 19.664 1.196C21.08 0.691999 22.628 0.439999 24.308 0.439999C25.988 0.439999 27.224 0.571998 28.016 0.835998C28.832 1.1 29.24 1.436 29.24 1.844V24.956C29.24 25.268 28.556 25.52 27.188 25.712C25.82 25.904 24.152 26 22.184 26C20.216 26 19.232 25.652 19.232 24.956C19.232 23.06 19.436 19.688 19.844 14.84H19.52L17.648 24.236C17.576 24.596 17.276 24.86 16.748 25.028C16.244 25.196 15.476 25.28 14.444 25.28C13.412 25.28 12.776 25.208 12.536 25.064C12.32 24.92 12.176 24.644 12.104 24.236L10.16 14.84H9.836C10.268 19.784 10.484 23.156 10.484 24.956C10.484 25.58 8.984 25.928 5.984 26ZM48.2078 24.956C48.2078 25.268 47.4758 25.52 46.0118 25.712C44.5478 25.904 43.0838 26 41.6198 26C40.1798 26 39.2438 25.928 38.8118 25.784C38.3798 25.616 38.1638 25.34 38.1638 24.956V18.692C33.4118 8.972 31.0358 3.692 31.0358 2.852C31.0358 2.348 31.8398 1.82 33.4478 1.268C35.0558 0.715999 36.7478 0.439999 38.5238 0.439999C40.8038 0.439999 42.0158 1.112 42.1598 2.456L43.1318 12.14H43.5278L44.2118 2.708C44.2598 2.036 45.1118 1.496 46.7678 1.088C48.4238 0.655999 49.9958 0.439999 51.4838 0.439999C52.9718 0.439999 54.0038 0.655999 54.5798 1.088C55.1558 1.52 55.4438 1.976 55.4438 2.456C55.4438 2.912 53.0318 8.324 48.2078 18.692V24.956ZM75.3824 24.884C75.3824 25.196 74.6384 25.448 73.1504 25.64C71.6864 25.832 70.2224 25.928 68.7584 25.928C67.2944 25.928 66.3584 25.844 65.9504 25.676C65.5424 25.508 65.3384 25.244 65.3384 24.884V2.816C65.3384 2.192 66.0104 1.64 67.3544 1.16C68.7224 0.679998 70.2944 0.439999 72.0704 0.439999C73.5344 0.439999 74.4824 0.727998 74.9144 1.304C75.2264 1.712 75.3824 2.084 75.3824 2.42V8.36H75.6704C75.6704 8.24 76.0304 7.244 76.7504 5.372C78.1184 1.844 79.1144 0.079999 79.7384 0.079999C80.9144 0.079999 82.5704 0.427999 84.7064 1.124C85.7384 1.46 86.6264 1.952 87.3704 2.6C88.1144 3.224 88.4864 3.92 88.4864 4.688C88.4864 5.168 87.9944 6.104 87.0104 7.496C86.0504 8.864 84.5864 10.7 82.6184 13.004C83.0744 13.484 83.6504 14.096 84.3464 14.84C85.0424 15.584 85.9664 16.7 87.1184 18.188C88.2944 19.652 88.8824 20.696 88.8824 21.32C88.8824 21.944 88.3184 22.676 87.1904 23.516C86.0624 24.332 84.8624 25.004 83.5904 25.532C82.3184 26.036 81.3704 26.288 80.7464 26.288C80.3384 26.288 79.7744 25.676 79.0544 24.452C78.3584 23.204 77.5064 21.344 76.4984 18.872L75.3824 20.204V24.884ZM109.114 26H93.8499C92.6739 26 91.8819 25.916 91.4739 25.748C91.0659 25.58 90.8619 25.316 90.8619 24.956V2.168C90.8619 1.544 91.1379 1.1 91.6899 0.835998C92.2659 0.571998 93.2859 0.439999 94.7499 0.439999H109.222C109.726 0.439999 109.978 1.28 109.978 2.96C109.978 4.616 109.87 5.888 109.654 6.776C109.438 7.64 109.15 8.072 108.79 8.072C107.23 8.072 104.602 7.916 100.906 7.604V10.016C104.458 9.872 106.774 9.8 107.854 9.8C108.502 9.8 108.826 10.556 108.826 12.068C108.826 13.58 108.694 14.732 108.43 15.524C108.19 16.292 107.854 16.676 107.422 16.676L100.906 16.532V18.836C105.082 18.524 107.962 18.368 109.546 18.368C110.05 18.368 110.302 19.208 110.302 20.888C110.302 22.568 110.194 23.84 109.978 24.704C109.762 25.568 109.474 26 109.114 26ZM128.927 24.956C128.927 25.268 128.195 25.52 126.731 25.712C125.267 25.904 123.803 26 122.339 26C120.899 26 119.963 25.928 119.531 25.784C119.099 25.616 118.883 25.34 118.883 24.956V18.692C114.131 8.972 111.755 3.692 111.755 2.852C111.755 2.348 112.559 1.82 114.167 1.268C115.775 0.715999 117.467 0.439999 119.243 0.439999C121.523 0.439999 122.735 1.112 122.879 2.456L123.851 12.14H124.247L124.931 2.708C124.979 2.036 125.831 1.496 127.487 1.088C129.143 0.655999 130.715 0.439999 132.203 0.439999C133.691 0.439999 134.723 0.655999 135.299 1.088C135.875 1.52 136.163 1.976 136.163 2.456C136.163 2.912 133.751 8.324 128.927 18.692V24.956ZM148.879 26H140.995C139.795 26 138.991 25.916 138.583 25.748C138.175 25.58 137.971 25.316 137.971 24.956V1.808C137.971 0.655999 141.439 0.079999 148.375 0.079999C152.359 0.079999 155.107 0.463999 156.619 1.232C158.155 2.024 159.139 3.032 159.571 4.256C159.811 4.976 159.931 5.816 159.931 6.776C159.931 8.648 159.607 10.052 158.959 10.988C158.335 11.924 157.651 12.452 156.907 12.572C158.035 12.812 158.971 13.364 159.715 14.228C160.459 15.092 160.831 16.556 160.831 18.62C160.831 21.02 160.099 22.796 158.635 23.948C157.363 24.956 155.419 25.592 152.803 25.856C151.699 25.952 150.391 26 148.879 26ZM148.915 10.304C150.139 10.304 150.751 9.488 150.751 7.856C150.751 7.04 150.583 6.44 150.247 6.056C149.935 5.648 149.575 5.444 149.167 5.444H148.015V10.304H148.915ZM148.015 20.636H148.915C150.139 20.636 150.751 19.82 150.751 18.188C150.751 17.372 150.583 16.772 150.247 16.388C149.935 15.98 149.575 15.776 149.167 15.776H148.015V20.636ZM175.522 26.324C173.53 26.324 171.814 26.144 170.374 25.784C168.958 25.4 167.65 24.728 166.45 23.768C164.026 21.872 162.814 18.236 162.814 12.86C162.814 10.604 163.138 8.636 163.786 6.956C164.458 5.276 165.382 3.944 166.558 2.96C168.862 1.04 171.85 0.079999 175.522 0.079999C177.418 0.079999 179.062 0.247999 180.454 0.583999C181.87 0.919999 183.202 1.532 184.45 2.42C186.97 4.244 188.23 7.724 188.23 12.86C188.23 17.468 187.09 20.864 184.81 23.048C182.53 25.232 179.434 26.324 175.522 26.324ZM174.334 20.168C174.622 20.504 175.018 20.672 175.522 20.672C176.026 20.672 176.422 20.504 176.71 20.168C176.998 19.808 177.238 19.064 177.43 17.936C177.622 16.784 177.718 15.188 177.718 13.148C177.718 11.108 177.622 9.536 177.43 8.432C177.238 7.328 176.998 6.608 176.71 6.272C176.422 5.936 176.026 5.768 175.522 5.768C175.018 5.768 174.622 5.936 174.334 6.272C174.046 6.608 173.806 7.328 173.614 8.432C173.422 9.536 173.326 11.108 173.326 13.148C173.326 15.188 173.422 16.784 173.614 17.936C173.806 19.064 174.046 19.808 174.334 20.168ZM199.06 24.164C199.012 24.86 198.64 25.34 197.944 25.604C197.272 25.868 196.048 26 194.272 26C192.496 26 191.008 25.844 189.808 25.532C188.632 25.196 188.044 24.776 188.044 24.272C188.044 23.696 189.112 20.024 191.248 13.256C193.384 6.464 194.608 2.552 194.92 1.52C195.04 1.208 196 0.955999 197.8 0.763999C199.624 0.547999 201.568 0.439999 203.632 0.439999C205.72 0.439999 206.872 0.799999 207.088 1.52C211.624 16.592 213.892 24.248 213.892 24.488C213.892 24.728 213.748 24.968 213.46 25.208C212.788 25.736 211.456 26 209.464 26C205.216 26 203.044 25.496 202.948 24.488L202.696 22.148H199.24L199.06 24.164ZM201.94 15.308L201.4 8.828H200.608L199.996 15.308H201.94ZM225.782 24.956C225.782 25.268 225.05 25.52 223.586 25.712C222.122 25.904 220.646 26 219.158 26C217.694 26 216.746 25.916 216.314 25.748C215.906 25.58 215.702 25.316 215.702 24.956V1.808C215.702 1.184 216.482 0.739999 218.042 0.475998C219.626 0.211999 221.618 0.079999 224.018 0.079999C226.418 0.079999 227.966 0.0919988 228.662 0.115999C229.382 0.115999 230.222 0.151999 231.182 0.223999C232.142 0.295998 232.898 0.415998 233.45 0.583999C234.026 0.751998 234.65 0.967998 235.322 1.232C236.018 1.496 236.558 1.844 236.942 2.276C237.326 2.684 237.698 3.176 238.058 3.752C238.706 4.784 239.03 6.26 239.03 8.18C239.03 10.076 238.706 11.684 238.058 13.004C237.434 14.3 236.594 15.284 235.538 15.956C238.298 20.3 239.678 23.06 239.678 24.236C239.678 25.412 237.314 26 232.586 26C231.218 26 230.27 25.94 229.742 25.82C229.214 25.7 228.878 25.436 228.734 25.028L226.394 17.612L225.782 17.576V24.956ZM225.782 12.032H226.718C228.11 12.032 228.806 10.952 228.806 8.792C228.806 7.688 228.614 6.908 228.23 6.452C227.87 5.996 227.45 5.768 226.97 5.768H225.782V12.032ZM252.955 26H244.459C243.283 26 242.491 25.916 242.083 25.748C241.675 25.58 241.471 25.304 241.471 24.92V2.204C241.471 1.58 241.735 1.136 242.263 0.872C242.791 0.583999 243.703 0.439999 244.999 0.439999H253.099C257.707 0.439999 260.887 1.352 262.639 3.176C264.391 4.976 265.267 8.264 265.267 13.04C265.267 17.816 264.355 21.176 262.531 23.12C260.707 25.04 257.515 26 252.955 26ZM252.667 5.804C252.091 5.804 251.707 5.852 251.515 5.948V20.492L252.883 20.636C253.603 20.636 254.143 20.06 254.503 18.908C254.887 17.756 255.079 15.764 255.079 12.932C255.079 10.1 254.887 8.204 254.503 7.244C254.119 6.284 253.507 5.804 252.667 5.804Z" fill="url(#paint0_linear_1_57)"/>
<defs>
<linearGradient id="paint0_linear_1_57" x1="197.574" y1="-9" x2="124.458" y2="93.0216" gradientUnits="userSpaceOnUse">
<stop stop-color="#A315FD"/>
<stop offset="0.465" stop-color="#7642FF"/>
<stop offset="1" stop-color="#4E75F6"/>
</linearGradient>
</defs>
</svg>
