<svg width="268" height="29" viewBox="0 0 268 29" fill="none" xmlns="http://www.w3.org/2000/svg">
<mask id="path-1-outside-1_1_56" maskUnits="userSpaceOnUse" x="0" y="0" width="268" height="29" fill="black">
<rect fill="white" width="268" height="29"/>
<path d="M6.984 27C6.384 27 5.508 27 4.356 27C3.228 27 2.46 26.916 2.052 26.748C1.644 26.58 1.44 26.316 1.44 25.956V3.24C1.44 2.688 2.172 2.256 3.636 1.944C5.124 1.608 6.708 1.44 8.388 1.44C10.068 1.44 11.268 1.656 11.988 2.088C12.708 2.52 13.128 2.976 13.248 3.456L15.696 12.96H16.02L18.324 3.888C18.492 3.24 19.272 2.676 20.664 2.196C22.08 1.692 23.628 1.44 25.308 1.44C26.988 1.44 28.224 1.572 29.016 1.836C29.832 2.1 30.24 2.436 30.24 2.844V25.956C30.24 26.268 29.556 26.52 28.188 26.712C26.82 26.904 25.152 27 23.184 27C21.216 27 20.232 26.652 20.232 25.956C20.232 24.06 20.436 20.688 20.844 15.84H20.52L18.648 25.236C18.576 25.596 18.276 25.86 17.748 26.028C17.244 26.196 16.476 26.28 15.444 26.28C14.412 26.28 13.776 26.208 13.536 26.064C13.32 25.92 13.176 25.644 13.104 25.236L11.16 15.84H10.836C11.268 20.784 11.484 24.156 11.484 25.956C11.484 26.58 9.984 26.928 6.984 27ZM49.2078 25.956C49.2078 26.268 48.4758 26.52 47.0118 26.712C45.5478 26.904 44.0838 27 42.6198 27C41.1798 27 40.2438 26.928 39.8118 26.784C39.3798 26.616 39.1638 26.34 39.1638 25.956V19.692C34.4118 9.972 32.0358 4.692 32.0358 3.852C32.0358 3.348 32.8398 2.82 34.4478 2.268C36.0558 1.716 37.7478 1.44 39.5238 1.44C41.8038 1.44 43.0158 2.112 43.1598 3.456L44.1318 13.14H44.5278L45.2118 3.708C45.2598 3.036 46.1118 2.496 47.7678 2.088C49.4238 1.656 50.9958 1.44 52.4838 1.44C53.9718 1.44 55.0038 1.656 55.5798 2.088C56.1558 2.52 56.4438 2.976 56.4438 3.456C56.4438 3.912 54.0318 9.324 49.2078 19.692V25.956ZM76.3824 25.884C76.3824 26.196 75.6384 26.448 74.1504 26.64C72.6864 26.832 71.2224 26.928 69.7584 26.928C68.2944 26.928 67.3584 26.844 66.9504 26.676C66.5424 26.508 66.3384 26.244 66.3384 25.884V3.816C66.3384 3.192 67.0104 2.64 68.3544 2.16C69.7224 1.68 71.2944 1.44 73.0704 1.44C74.5344 1.44 75.4824 1.728 75.9144 2.304C76.2264 2.712 76.3824 3.084 76.3824 3.42V9.36H76.6704C76.6704 9.24 77.0304 8.244 77.7504 6.372C79.1184 2.844 80.1144 1.08 80.7384 1.08C81.9144 1.08 83.5704 1.428 85.7064 2.124C86.7384 2.46 87.6264 2.952 88.3704 3.6C89.1144 4.224 89.4864 4.92 89.4864 5.688C89.4864 6.168 88.9944 7.104 88.0104 8.496C87.0504 9.864 85.5864 11.7 83.6184 14.004C84.0744 14.484 84.6504 15.096 85.3464 15.84C86.0424 16.584 86.9664 17.7 88.1184 19.188C89.2944 20.652 89.8824 21.696 89.8824 22.32C89.8824 22.944 89.3184 23.676 88.1904 24.516C87.0624 25.332 85.8624 26.004 84.5904 26.532C83.3184 27.036 82.3704 27.288 81.7464 27.288C81.3384 27.288 80.7744 26.676 80.0544 25.452C79.3584 24.204 78.5064 22.344 77.4984 19.872L76.3824 21.204V25.884ZM110.114 27H94.8499C93.6739 27 92.8819 26.916 92.4739 26.748C92.0659 26.58 91.8619 26.316 91.8619 25.956V3.168C91.8619 2.544 92.1379 2.1 92.6899 1.836C93.2659 1.572 94.2859 1.44 95.7499 1.44H110.222C110.726 1.44 110.978 2.28 110.978 3.96C110.978 5.616 110.87 6.888 110.654 7.776C110.438 8.64 110.15 9.072 109.79 9.072C108.23 9.072 105.602 8.916 101.906 8.604V11.016C105.458 10.872 107.774 10.8 108.854 10.8C109.502 10.8 109.826 11.556 109.826 13.068C109.826 14.58 109.694 15.732 109.43 16.524C109.19 17.292 108.854 17.676 108.422 17.676L101.906 17.532V19.836C106.082 19.524 108.962 19.368 110.546 19.368C111.05 19.368 111.302 20.208 111.302 21.888C111.302 23.568 111.194 24.84 110.978 25.704C110.762 26.568 110.474 27 110.114 27ZM129.927 25.956C129.927 26.268 129.195 26.52 127.731 26.712C126.267 26.904 124.803 27 123.339 27C121.899 27 120.963 26.928 120.531 26.784C120.099 26.616 119.883 26.34 119.883 25.956V19.692C115.131 9.972 112.755 4.692 112.755 3.852C112.755 3.348 113.559 2.82 115.167 2.268C116.775 1.716 118.467 1.44 120.243 1.44C122.523 1.44 123.735 2.112 123.879 3.456L124.851 13.14H125.247L125.931 3.708C125.979 3.036 126.831 2.496 128.487 2.088C130.143 1.656 131.715 1.44 133.203 1.44C134.691 1.44 135.723 1.656 136.299 2.088C136.875 2.52 137.163 2.976 137.163 3.456C137.163 3.912 134.751 9.324 129.927 19.692V25.956ZM149.879 27H141.995C140.795 27 139.991 26.916 139.583 26.748C139.175 26.58 138.971 26.316 138.971 25.956V2.808C138.971 1.656 142.439 1.08 149.375 1.08C153.359 1.08 156.107 1.464 157.619 2.232C159.155 3.024 160.139 4.032 160.571 5.256C160.811 5.976 160.931 6.816 160.931 7.776C160.931 9.648 160.607 11.052 159.959 11.988C159.335 12.924 158.651 13.452 157.907 13.572C159.035 13.812 159.971 14.364 160.715 15.228C161.459 16.092 161.831 17.556 161.831 19.62C161.831 22.02 161.099 23.796 159.635 24.948C158.363 25.956 156.419 26.592 153.803 26.856C152.699 26.952 151.391 27 149.879 27ZM149.915 11.304C151.139 11.304 151.751 10.488 151.751 8.856C151.751 8.04 151.583 7.44 151.247 7.056C150.935 6.648 150.575 6.444 150.167 6.444H149.015V11.304H149.915ZM149.015 21.636H149.915C151.139 21.636 151.751 20.82 151.751 19.188C151.751 18.372 151.583 17.772 151.247 17.388C150.935 16.98 150.575 16.776 150.167 16.776H149.015V21.636ZM176.522 27.324C174.53 27.324 172.814 27.144 171.374 26.784C169.958 26.4 168.65 25.728 167.45 24.768C165.026 22.872 163.814 19.236 163.814 13.86C163.814 11.604 164.138 9.636 164.786 7.956C165.458 6.276 166.382 4.944 167.558 3.96C169.862 2.04 172.85 1.08 176.522 1.08C178.418 1.08 180.062 1.248 181.454 1.584C182.87 1.92 184.202 2.532 185.45 3.42C187.97 5.244 189.23 8.724 189.23 13.86C189.23 18.468 188.09 21.864 185.81 24.048C183.53 26.232 180.434 27.324 176.522 27.324ZM175.334 21.168C175.622 21.504 176.018 21.672 176.522 21.672C177.026 21.672 177.422 21.504 177.71 21.168C177.998 20.808 178.238 20.064 178.43 18.936C178.622 17.784 178.718 16.188 178.718 14.148C178.718 12.108 178.622 10.536 178.43 9.432C178.238 8.328 177.998 7.608 177.71 7.272C177.422 6.936 177.026 6.768 176.522 6.768C176.018 6.768 175.622 6.936 175.334 7.272C175.046 7.608 174.806 8.328 174.614 9.432C174.422 10.536 174.326 12.108 174.326 14.148C174.326 16.188 174.422 17.784 174.614 18.936C174.806 20.064 175.046 20.808 175.334 21.168ZM200.06 25.164C200.012 25.86 199.64 26.34 198.944 26.604C198.272 26.868 197.048 27 195.272 27C193.496 27 192.008 26.844 190.808 26.532C189.632 26.196 189.044 25.776 189.044 25.272C189.044 24.696 190.112 21.024 192.248 14.256C194.384 7.464 195.608 3.552 195.92 2.52C196.04 2.208 197 1.956 198.8 1.764C200.624 1.548 202.568 1.44 204.632 1.44C206.72 1.44 207.872 1.8 208.088 2.52C212.624 17.592 214.892 25.248 214.892 25.488C214.892 25.728 214.748 25.968 214.46 26.208C213.788 26.736 212.456 27 210.464 27C206.216 27 204.044 26.496 203.948 25.488L203.696 23.148H200.24L200.06 25.164ZM202.94 16.308L202.4 9.828H201.608L200.996 16.308H202.94ZM226.782 25.956C226.782 26.268 226.05 26.52 224.586 26.712C223.122 26.904 221.646 27 220.158 27C218.694 27 217.746 26.916 217.314 26.748C216.906 26.58 216.702 26.316 216.702 25.956V2.808C216.702 2.184 217.482 1.74 219.042 1.476C220.626 1.212 222.618 1.08 225.018 1.08C227.418 1.08 228.966 1.092 229.662 1.116C230.382 1.116 231.222 1.152 232.182 1.224C233.142 1.296 233.898 1.416 234.45 1.584C235.026 1.752 235.65 1.968 236.322 2.232C237.018 2.496 237.558 2.844 237.942 3.276C238.326 3.684 238.698 4.176 239.058 4.752C239.706 5.784 240.03 7.26 240.03 9.18C240.03 11.076 239.706 12.684 239.058 14.004C238.434 15.3 237.594 16.284 236.538 16.956C239.298 21.3 240.678 24.06 240.678 25.236C240.678 26.412 238.314 27 233.586 27C232.218 27 231.27 26.94 230.742 26.82C230.214 26.7 229.878 26.436 229.734 26.028L227.394 18.612L226.782 18.576V25.956ZM226.782 13.032H227.718C229.11 13.032 229.806 11.952 229.806 9.792C229.806 8.688 229.614 7.908 229.23 7.452C228.87 6.996 228.45 6.768 227.97 6.768H226.782V13.032ZM253.955 27H245.459C244.283 27 243.491 26.916 243.083 26.748C242.675 26.58 242.471 26.304 242.471 25.92V3.204C242.471 2.58 242.735 2.136 243.263 1.872C243.791 1.584 244.703 1.44 245.999 1.44H254.099C258.707 1.44 261.887 2.352 263.639 4.176C265.391 5.976 266.267 9.264 266.267 14.04C266.267 18.816 265.355 22.176 263.531 24.12C261.707 26.04 258.515 27 253.955 27ZM253.667 6.804C253.091 6.804 252.707 6.852 252.515 6.948V21.492L253.883 21.636C254.603 21.636 255.143 21.06 255.503 19.908C255.887 18.756 256.079 16.764 256.079 13.932C256.079 11.1 255.887 9.204 255.503 8.244C255.119 7.284 254.507 6.804 253.667 6.804Z"/>
</mask>
<path d="M6.984 27V28H6.996L7.00799 27.9997L6.984 27ZM2.052 26.748L2.43275 25.8233L2.052 26.748ZM3.636 1.944L3.84445 2.92211L3.85626 2.91944L3.636 1.944ZM13.248 3.456L12.2778 3.69854L12.2796 3.70543L13.248 3.456ZM15.696 12.96L14.7276 13.2094L14.9209 13.96H15.696V12.96ZM16.02 12.96V13.96H16.7978L16.9892 13.2062L16.02 12.96ZM18.324 3.888L17.356 3.63703L17.3548 3.64185L18.324 3.888ZM20.664 2.196L20.99 3.14142L20.9993 3.1381L20.664 2.196ZM29.016 1.836L28.6998 2.78472L28.7082 2.78744L29.016 1.836ZM28.188 26.712L28.327 27.7023L28.188 26.712ZM20.844 15.84L21.8405 15.9239L21.9317 14.84H20.844V15.84ZM20.52 15.84V14.84H19.6996L19.5393 15.6446L20.52 15.84ZM18.648 25.236L19.6286 25.4321L19.6287 25.4314L18.648 25.236ZM17.748 26.028L17.4448 25.075L17.4318 25.0793L17.748 26.028ZM13.536 26.064L12.9813 26.896L13.0011 26.9092L13.0215 26.9215L13.536 26.064ZM13.104 25.236L14.0888 25.0622L14.0862 25.0478L14.0833 25.0334L13.104 25.236ZM11.16 15.84L12.1393 15.6374L11.9743 14.84H11.16V15.84ZM10.836 15.84V14.84H9.74481L9.8398 15.927L10.836 15.84ZM6.984 27V26C6.98283 26 6.98166 26 6.98048 26C6.97931 26 6.97813 26 6.97696 26C6.97578 26 6.9746 26 6.97342 26C6.97225 26 6.97107 26 6.96989 26C6.96871 26 6.96753 26 6.96634 26C6.96516 26 6.96398 26 6.96279 26C6.96161 26 6.96042 26 6.95924 26C6.95805 26 6.95686 26 6.95567 26C6.95448 26 6.95329 26 6.9521 26C6.95091 26 6.94972 26 6.94853 26C6.94734 26 6.94614 26 6.94495 26C6.94375 26 6.94255 26 6.94136 26C6.94016 26 6.93896 26 6.93776 26C6.93656 26 6.93536 26 6.93416 26C6.93296 26 6.93176 26 6.93056 26C6.92935 26 6.92815 26 6.92694 26C6.92574 26 6.92453 26 6.92332 26C6.92211 26 6.92091 26 6.9197 26C6.91849 26 6.91727 26 6.91606 26C6.91485 26 6.91364 26 6.91242 26C6.91121 26 6.91 26 6.90878 26C6.90756 26 6.90635 26 6.90513 26C6.90391 26 6.90269 26 6.90147 26C6.90025 26 6.89903 26 6.89781 26C6.89658 26 6.89536 26 6.89414 26C6.89291 26 6.89169 26 6.89046 26C6.88923 26 6.888 26 6.88678 26C6.88555 26 6.88432 26 6.88309 26C6.88186 26 6.88062 26 6.87939 26C6.87816 26 6.87692 26 6.87569 26C6.87445 26 6.87322 26 6.87198 26C6.87074 26 6.8695 26 6.86827 26C6.86703 26 6.86579 26 6.86454 26C6.8633 26 6.86206 26 6.86082 26C6.85957 26 6.85833 26 6.85708 26C6.85584 26 6.85459 26 6.85334 26C6.8521 26 6.85085 26 6.8496 26C6.84835 26 6.8471 26 6.84585 26C6.84459 26 6.84334 26 6.84209 26C6.84083 26 6.83958 26 6.83832 26C6.83707 26 6.83581 26 6.83455 26C6.83329 26 6.83203 26 6.83077 26C6.82951 26 6.82825 26 6.82699 26C6.82573 26 6.82446 26 6.8232 26C6.82193 26 6.82067 26 6.8194 26C6.81813 26 6.81687 26 6.8156 26C6.81433 26 6.81306 26 6.81179 26C6.81052 26 6.80925 26 6.80797 26C6.8067 26 6.80543 26 6.80415 26C6.80288 26 6.8016 26 6.80032 26C6.79905 26 6.79777 26 6.79649 26C6.79521 26 6.79393 26 6.79265 26C6.79137 26 6.79008 26 6.7888 26C6.78752 26 6.78623 26 6.78495 26C6.78366 26 6.78237 26 6.78109 26C6.7798 26 6.77851 26 6.77722 26C6.77593 26 6.77464 26 6.77335 26C6.77206 26 6.77076 26 6.76947 26C6.76817 26 6.76688 26 6.76558 26C6.76429 26 6.76299 26 6.76169 26C6.76039 26 6.75909 26 6.75779 26C6.75649 26 6.75519 26 6.75389 26C6.75259 26 6.75128 26 6.74998 26C6.74867 26 6.74737 26 6.74606 26C6.74476 26 6.74345 26 6.74214 26C6.74083 26 6.73952 26 6.73821 26C6.7369 26 6.73559 26 6.73427 26C6.73296 26 6.73165 26 6.73033 26C6.72902 26 6.7277 26 6.72638 26C6.72507 26 6.72375 26 6.72243 26C6.72111 26 6.71979 26 6.71847 26C6.71715 26 6.71582 26 6.7145 26C6.71318 26 6.71185 26 6.71053 26C6.7092 26 6.70788 26 6.70655 26C6.70522 26 6.70389 26 6.70256 26C6.70123 26 6.6999 26 6.69857 26C6.69724 26 6.6959 26 6.69457 26C6.69324 26 6.6919 26 6.69056 26C6.68923 26 6.68789 26 6.68655 26C6.68521 26 6.68388 26 6.68254 26C6.6812 26 6.67985 26 6.67851 26C6.67717 26 6.67583 26 6.67448 26C6.67314 26 6.67179 26 6.67044 26C6.6691 26 6.66775 26 6.6664 26C6.66505 26 6.6637 26 6.66235 26C6.661 26 6.65965 26 6.6583 26C6.65694 26 6.65559 26 6.65423 26C6.65288 26 6.65152 26 6.65017 26C6.64881 26 6.64745 26 6.64609 26C6.64473 26 6.64337 26 6.64201 26C6.64065 26 6.63929 26 6.63792 26C6.63656 26 6.63519 26 6.63383 26C6.63246 26 6.6311 26 6.62973 26C6.62836 26 6.62699 26 6.62562 26C6.62425 26 6.62288 26 6.62151 26C6.62014 26 6.61876 26 6.61739 26C6.61602 26 6.61464 26 6.61327 26C6.61189 26 6.61051 26 6.60913 26C6.60776 26 6.60638 26 6.605 26C6.60362 26 6.60223 26 6.60085 26C6.59947 26 6.59809 26 6.5967 26C6.59532 26 6.59393 26 6.59255 26C6.59116 26 6.58977 26 6.58838 26C6.58699 26 6.5856 26 6.58421 26C6.58282 26 6.58143 26 6.58004 26C6.57864 26 6.57725 26 6.57585 26C6.57446 26 6.57306 26 6.57167 26C6.57027 26 6.56887 26 6.56747 26C6.56607 26 6.56467 26 6.56327 26C6.56187 26 6.56047 26 6.55906 26C6.55766 26 6.55625 26 6.55485 26C6.55344 26 6.55204 26 6.55063 26C6.54922 26 6.54781 26 6.5464 26C6.54499 26 6.54358 26 6.54217 26C6.54076 26 6.53935 26 6.53793 26C6.53652 26 6.5351 26 6.53369 26C6.53227 26 6.53085 26 6.52943 26C6.52802 26 6.5266 26 6.52518 26C6.52376 26 6.52234 26 6.52091 26C6.51949 26 6.51807 26 6.51664 26C6.51522 26 6.51379 26 6.51236 26C6.51094 26 6.50951 26 6.50808 26C6.50665 26 6.50522 26 6.50379 26C6.50236 26 6.50093 26 6.4995 26C6.49806 26 6.49663 26 6.49519 26C6.49376 26 6.49232 26 6.49089 26C6.48945 26 6.48801 26 6.48657 26C6.48513 26 6.48369 26 6.48225 26C6.48081 26 6.47937 26 6.47792 26C6.47648 26 6.47503 26 6.47359 26C6.47214 26 6.4707 26 6.46925 26C6.4678 26 6.46635 26 6.4649 26C6.46345 26 6.462 26 6.46055 26C6.4591 26 6.45765 26 6.45619 26C6.45474 26 6.45328 26 6.45183 26C6.45037 26 6.44891 26 6.44745 26C6.446 26 6.44454 26 6.44308 26C6.44162 26 6.44015 26 6.43869 26C6.43723 26 6.43577 26 6.4343 26C6.43284 26 6.43137 26 6.4299 26C6.42844 26 6.42697 26 6.4255 26C6.42403 26 6.42256 26 6.42109 26C6.41962 26 6.41815 26 6.41668 26C6.4152 26 6.41373 26 6.41225 26C6.41078 26 6.4093 26 6.40783 26C6.40635 26 6.40487 26 6.40339 26C6.40191 26 6.40043 26 6.39895 26C6.39747 26 6.39599 26 6.3945 26C6.39302 26 6.39153 26 6.39005 26C6.38856 26 6.38708 26 6.38559 26C6.3841 26 6.38261 26 6.38112 26C6.37963 26 6.37814 26 6.37665 26C6.37516 26 6.37366 26 6.37217 26C6.37068 26 6.36918 26 6.36769 26C6.36619 26 6.36469 26 6.36319 26C6.3617 26 6.3602 26 6.3587 26C6.3572 26 6.35569 26 6.35419 26C6.35269 26 6.35119 26 6.34968 26C6.34818 26 6.34667 26 6.34516 26C6.34366 26 6.34215 26 6.34064 26C6.33913 26 6.33762 26 6.33611 26C6.3346 26 6.33309 26 6.33158 26C6.33006 26 6.32855 26 6.32703 26C6.32552 26 6.324 26 6.32248 26C6.32097 26 6.31945 26 6.31793 26C6.31641 26 6.31489 26 6.31337 26C6.31185 26 6.31033 26 6.3088 26C6.30728 26 6.30575 26 6.30423 26C6.3027 26 6.30118 26 6.29965 26C6.29812 26 6.29659 26 6.29506 26C6.29353 26 6.292 26 6.29047 26C6.28894 26 6.2874 26 6.28587 26C6.28434 26 6.2828 26 6.28126 26C6.27973 26 6.27819 26 6.27665 26C6.27511 26 6.27358 26 6.27203 26C6.27049 26 6.26895 26 6.26741 26C6.26587 26 6.26432 26 6.26278 26C6.26124 26 6.25969 26 6.25814 26C6.2566 26 6.25505 26 6.2535 26C6.25195 26 6.2504 26 6.24885 26C6.2473 26 6.24575 26 6.24419 26C6.24264 26 6.24109 26 6.23953 26C6.23798 26 6.23642 26 6.23486 26C6.23331 26 6.23175 26 6.23019 26C6.22863 26 6.22707 26 6.22551 26C6.22395 26 6.22238 26 6.22082 26C6.21926 26 6.21769 26 6.21613 26C6.21456 26 6.21299 26 6.21143 26C6.20986 26 6.20829 26 6.20672 26C6.20515 26 6.20358 26 6.20201 26C6.20044 26 6.19886 26 6.19729 26C6.19571 26 6.19414 26 6.19256 26C6.19099 26 6.18941 26 6.18783 26C6.18625 26 6.18467 26 6.18309 26C6.18151 26 6.17993 26 6.17835 26C6.17677 26 6.17518 26 6.1736 26C6.17201 26 6.17043 26 6.16884 26C6.16725 26 6.16567 26 6.16408 26C6.16249 26 6.1609 26 6.15931 26C6.15772 26 6.15613 26 6.15453 26C6.15294 26 6.15135 26 6.14975 26C6.14816 26 6.14656 26 6.14496 26C6.14336 26 6.14177 26 6.14017 26C6.13857 26 6.13697 26 6.13537 26C6.13376 26 6.13216 26 6.13056 26C6.12895 26 6.12735 26 6.12574 26C6.12414 26 6.12253 26 6.12092 26C6.11932 26 6.11771 26 6.1161 26C6.11449 26 6.11288 26 6.11127 26C6.10965 26 6.10804 26 6.10643 26C6.10481 26 6.1032 26 6.10158 26C6.09996 26 6.09835 26 6.09673 26C6.09511 26 6.09349 26 6.09187 26C6.09025 26 6.08863 26 6.08701 26C6.08538 26 6.08376 26 6.08214 26C6.08051 26 6.07889 26 6.07726 26C6.07563 26 6.074 26 6.07238 26C6.07075 26 6.06912 26 6.06749 26C6.06586 26 6.06422 26 6.06259 26C6.06096 26 6.05932 26 6.05769 26C6.05605 26 6.05442 26 6.05278 26C6.05114 26 6.0495 26 6.04786 26C6.04623 26 6.04458 26 6.04294 26C6.0413 26 6.03966 26 6.03802 26C6.03637 26 6.03473 26 6.03308 26C6.03144 26 6.02979 26 6.02814 26C6.02649 26 6.02485 26 6.0232 26C6.02155 26 6.01989 26 6.01824 26C6.01659 26 6.01494 26 6.01328 26C6.01163 26 6.00997 26 6.00832 26C6.00666 26 6.005 26 6.00335 26C6.00169 26 6.00003 26 5.99837 26C5.99671 26 5.99505 26 5.99338 26C5.99172 26 5.99006 26 5.98839 26C5.98673 26 5.98506 26 5.9834 26C5.98173 26 5.98006 26 5.97839 26C5.97672 26 5.97505 26 5.97338 26C5.97171 26 5.97004 26 5.96837 26C5.96669 26 5.96502 26 5.96335 26C5.96167 26 5.95999 26 5.95832 26C5.95664 26 5.95496 26 5.95328 26C5.9516 26 5.94992 26 5.94824 26C5.94656 26 5.94488 26 5.94319 26C5.94151 26 5.93983 26 5.93814 26C5.93645 26 5.93477 26 5.93308 26C5.93139 26 5.9297 26 5.92801 26C5.92632 26 5.92463 26 5.92294 26C5.92125 26 5.91955 26 5.91786 26C5.91617 26 5.91447 26 5.91278 26C5.91108 26 5.90938 26 5.90768 26C5.90599 26 5.90429 26 5.90259 26C5.90089 26 5.89918 26 5.89748 26C5.89578 26 5.89407 26 5.89237 26C5.89067 26 5.88896 26 5.88725 26C5.88555 26 5.88384 26 5.88213 26C5.88042 26 5.87871 26 5.877 26C5.87529 26 5.87358 26 5.87186 26C5.87015 26 5.86844 26 5.86672 26C5.86501 26 5.86329 26 5.86157 26C5.85986 26 5.85814 26 5.85642 26C5.8547 26 5.85298 26 5.85126 26C5.84954 26 5.84781 26 5.84609 26C5.84437 26 5.84264 26 5.84092 26C5.83919 26 5.83746 26 5.83574 26C5.83401 26 5.83228 26 5.83055 26C5.82882 26 5.82709 26 5.82536 26C5.82362 26 5.82189 26 5.82016 26C5.81842 26 5.81669 26 5.81495 26C5.81322 26 5.81148 26 5.80974 26C5.808 26 5.80626 26 5.80452 26C5.80278 26 5.80104 26 5.7993 26C5.79755 26 5.79581 26 5.79407 26C5.79232 26 5.79058 26 5.78883 26C5.78708 26 5.78534 26 5.78359 26C5.78184 26 5.78009 26 5.77834 26C5.77659 26 5.77483 26 5.77308 26C5.77133 26 5.76957 26 5.76782 26C5.76606 26 5.76431 26 5.76255 26C5.76079 26 5.75903 26 5.75727 26C5.75552 26 5.75376 26 5.75199 26C5.75023 26 5.74847 26 5.74671 26C5.74494 26 5.74318 26 5.74141 26C5.73965 26 5.73788 26 5.73611 26C5.73434 26 5.73258 26 5.73081 26C5.72904 26 5.72726 26 5.72549 26C5.72372 26 5.72195 26 5.72017 26C5.7184 26 5.71662 26 5.71485 26C5.71307 26 5.71129 26 5.70952 26C5.70774 26 5.70596 26 5.70418 26C5.7024 26 5.70062 26 5.69883 26C5.69705 26 5.69527 26 5.69348 26C5.6917 26 5.68991 26 5.68813 26C5.68634 26 5.68455 26 5.68276 26C5.68097 26 5.67918 26 5.67739 26C5.6756 26 5.67381 26 5.67202 26C5.67022 26 5.66843 26 5.66663 26C5.66484 26 5.66304 26 5.66125 26C5.65945 26 5.65765 26 5.65585 26C5.65405 26 5.65225 26 5.65045 26C5.64865 26 5.64685 26 5.64504 26C5.64324 26 5.64143 26 5.63963 26C5.63782 26 5.63602 26 5.63421 26C5.6324 26 5.63059 26 5.62878 26C5.62697 26 5.62516 26 5.62335 26C5.62154 26 5.61972 26 5.61791 26C5.61609 26 5.61428 26 5.61246 26C5.61065 26 5.60883 26 5.60701 26C5.60519 26 5.60337 26 5.60155 26C5.59973 26 5.59791 26 5.59609 26C5.59427 26 5.59244 26 5.59062 26C5.58879 26 5.58697 26 5.58514 26C5.58331 26 5.58149 26 5.57966 26C5.57783 26 5.576 26 5.57417 26C5.57234 26 5.5705 26 5.56867 26C5.56684 26 5.565 26 5.56317 26C5.56133 26 5.5595 26 5.55766 26C5.55582 26 5.55399 26 5.55215 26C5.55031 26 5.54847 26 5.54662 26C5.54478 26 5.54294 26 5.5411 26C5.53925 26 5.53741 26 5.53556 26C5.53372 26 5.53187 26 5.53002 26C5.52817 26 5.52633 26 5.52448 26C5.52263 26 5.52078 26 5.51892 26C5.51707 26 5.51522 26 5.51336 26C5.51151 26 5.50965 26 5.5078 26C5.50594 26 5.50409 26 5.50223 26C5.50037 26 5.49851 26 5.49665 26C5.49479 26 5.49293 26 5.49106 26C5.4892 26 5.48734 26 5.48547 26C5.48361 26 5.48174 26 5.47988 26C5.47801 26 5.47614 26 5.47427 26C5.4724 26 5.47053 26 5.46866 26C5.46679 26 5.46492 26 5.46305 26C5.46117 26 5.4593 26 5.45742 26C5.45555 26 5.45367 26 5.4518 26C5.44992 26 5.44804 26 5.44616 26C5.44428 26 5.4424 26 5.44052 26C5.43864 26 5.43676 26 5.43487 26C5.43299 26 5.4311 26 5.42922 26C5.42733 26 5.42545 26 5.42356 26C5.42167 26 5.41978 26 5.41789 26C5.416 26 5.41411 26 5.41222 26C5.41033 26 5.40843 26 5.40654 26C5.40464 26 5.40275 26 5.40085 26C5.39896 26 5.39706 26 5.39516 26C5.39326 26 5.39136 26 5.38946 26C5.38756 26 5.38566 26 5.38376 26C5.38186 26 5.37995 26 5.37805 26C5.37614 26 5.37424 26 5.37233 26C5.37042 26 5.36852 26 5.36661 26C5.3647 26 5.36279 26 5.36088 26C5.35897 26 5.35705 26 5.35514 26C5.35323 26 5.35131 26 5.3494 26C5.34748 26 5.34557 26 5.34365 26C5.34173 26 5.33981 26 5.33789 26C5.33598 26 5.33405 26 5.33213 26C5.33021 26 5.32829 26 5.32637 26C5.32444 26 5.32252 26 5.32059 26C5.31867 26 5.31674 26 5.31481 26C5.31288 26 5.31095 26 5.30902 26C5.3071 26 5.30516 26 5.30323 26C5.3013 26 5.29937 26 5.29743 26C5.2955 26 5.29356 26 5.29163 26C5.28969 26 5.28775 26 5.28582 26C5.28388 26 5.28194 26 5.28 26C5.27806 26 5.27611 26 5.27417 26C5.27223 26 5.27029 26 5.26834 26C5.2664 26 5.26445 26 5.2625 26C5.26056 26 5.25861 26 5.25666 26C5.25471 26 5.25276 26 5.25081 26C5.24886 26 5.24691 26 5.24496 26C5.243 26 5.24105 26 5.23909 26C5.23714 26 5.23518 26 5.23322 26C5.23127 26 5.22931 26 5.22735 26C5.22539 26 5.22343 26 5.22147 26C5.21951 26 5.21754 26 5.21558 26C5.21362 26 5.21165 26 5.20969 26C5.20772 26 5.20575 26 5.20378 26C5.20182 26 5.19985 26 5.19788 26C5.19591 26 5.19394 26 5.19197 26C5.18999 26 5.18802 26 5.18605 26C5.18407 26 5.1821 26 5.18012 26C5.17814 26 5.17617 26 5.17419 26C5.17221 26 5.17023 26 5.16825 26C5.16627 26 5.16429 26 5.16231 26C5.16032 26 5.15834 26 5.15635 26C5.15437 26 5.15238 26 5.1504 26C5.14841 26 5.14642 26 5.14443 26C5.14245 26 5.14046 26 5.13846 26C5.13647 26 5.13448 26 5.13249 26C5.1305 26 5.1285 26 5.12651 26C5.12451 26 5.12251 26 5.12052 26C5.11852 26 5.11652 26 5.11452 26C5.11252 26 5.11052 26 5.10852 26C5.10652 26 5.10452 26 5.10251 26C5.10051 26 5.0985 26 5.0965 26C5.09449 26 5.09249 26 5.09048 26C5.08847 26 5.08646 26 5.08445 26C5.08244 26 5.08043 26 5.07842 26C5.07641 26 5.07439 26 5.07238 26C5.07036 26 5.06835 26 5.06633 26C5.06432 26 5.0623 26 5.06028 26C5.05826 26 5.05624 26 5.05422 26C5.0522 26 5.05018 26 5.04816 26C5.04614 26 5.04411 26 5.04209 26C5.04006 26 5.03804 26 5.03601 26C5.03398 26 5.03196 26 5.02993 26C5.0279 26 5.02587 26 5.02384 26C5.02181 26 5.01977 26 5.01774 26C5.01571 26 5.01367 26 5.01164 26C5.0096 26 5.00757 26 5.00553 26C5.00349 26 5.00145 26 4.99941 26C4.99738 26 4.99533 26 4.99329 26C4.99125 26 4.98921 26 4.98717 26C4.98512 26 4.98308 26 4.98103 26C4.97899 26 4.97694 26 4.97489 26C4.97284 26 4.97079 26 4.96874 26C4.96669 26 4.96464 26 4.96259 26C4.96054 26 4.95849 26 4.95643 26C4.95438 26 4.95232 26 4.95027 26C4.94821 26 4.94615 26 4.94409 26C4.94204 26 4.93998 26 4.93792 26C4.93586 26 4.93379 26 4.93173 26C4.92967 26 4.92761 26 4.92554 26C4.92348 26 4.92141 26 4.91934 26C4.91728 26 4.91521 26 4.91314 26C4.91107 26 4.909 26 4.90693 26C4.90486 26 4.90279 26 4.90071 26C4.89864 26 4.89657 26 4.89449 26C4.89242 26 4.89034 26 4.88826 26C4.88618 26 4.88411 26 4.88203 26C4.87995 26 4.87787 26 4.87579 26C4.8737 26 4.87162 26 4.86954 26C4.86745 26 4.86537 26 4.86328 26C4.8612 26 4.85911 26 4.85702 26C4.85494 26 4.85285 26 4.85076 26C4.84867 26 4.84658 26 4.84448 26C4.84239 26 4.8403 26 4.8382 26C4.83611 26 4.83401 26 4.83192 26C4.82982 26 4.82772 26 4.82563 26C4.82353 26 4.82143 26 4.81933 26C4.81723 26 4.81513 26 4.81302 26C4.81092 26 4.80882 26 4.80671 26C4.80461 26 4.8025 26 4.8004 26C4.79829 26 4.79618 26 4.79407 26C4.79196 26 4.78985 26 4.78774 26C4.78563 26 4.78352 26 4.78141 26C4.77929 26 4.77718 26 4.77506 26C4.77295 26 4.77083 26 4.76871 26C4.7666 26 4.76448 26 4.76236 26C4.76024 26 4.75812 26 4.756 26C4.75388 26 4.75175 26 4.74963 26C4.74751 26 4.74538 26 4.74326 26C4.74113 26 4.739 26 4.73688 26C4.73475 26 4.73262 26 4.73049 26C4.72836 26 4.72623 26 4.72409 26C4.72196 26 4.71983 26 4.7177 26C4.71556 26 4.71343 26 4.71129 26C4.70915 26 4.70702 26 4.70488 26C4.70274 26 4.7006 26 4.69846 26C4.69632 26 4.69418 26 4.69203 26C4.68989 26 4.68775 26 4.6856 26C4.68346 26 4.68131 26 4.67917 26C4.67702 26 4.67487 26 4.67272 26C4.67057 26 4.66842 26 4.66627 26C4.66412 26 4.66197 26 4.65982 26C4.65766 26 4.65551 26 4.65335 26C4.6512 26 4.64904 26 4.64689 26C4.64473 26 4.64257 26 4.64041 26C4.63825 26 4.63609 26 4.63393 26C4.63177 26 4.6296 26 4.62744 26C4.62528 26 4.62311 26 4.62095 26C4.61878 26 4.61661 26 4.61445 26C4.61228 26 4.61011 26 4.60794 26C4.60577 26 4.6036 26 4.60143 26C4.59925 26 4.59708 26 4.59491 26C4.59273 26 4.59056 26 4.58838 26C4.5862 26 4.58403 26 4.58185 26C4.57967 26 4.57749 26 4.57531 26C4.57313 26 4.57095 26 4.56877 26C4.56658 26 4.5644 26 4.56221 26C4.56003 26 4.55784 26 4.55566 26C4.55347 26 4.55128 26 4.54909 26C4.54691 26 4.54471 26 4.54252 26C4.54033 26 4.53814 26 4.53595 26C4.53375 26 4.53156 26 4.52937 26C4.52717 26 4.52497 26 4.52278 26C4.52058 26 4.51838 26 4.51618 26C4.51398 26 4.51178 26 4.50958 26C4.50738 26 4.50518 26 4.50297 26C4.50077 26 4.49856 26 4.49636 26C4.49415 26 4.49194 26 4.48974 26C4.48753 26 4.48532 26 4.48311 26C4.4809 26 4.47869 26 4.47648 26C4.47426 26 4.47205 26 4.46984 26C4.46762 26 4.46541 26 4.46319 26C4.46098 26 4.45876 26 4.45654 26C4.45432 26 4.4521 26 4.44988 26C4.44766 26 4.44544 26 4.44322 26C4.44099 26 4.43877 26 4.43655 26C4.43432 26 4.4321 26 4.42987 26C4.42764 26 4.42541 26 4.42318 26C4.42096 26 4.41873 26 4.41649 26C4.41426 26 4.41203 26 4.4098 26C4.40757 26 4.40533 26 4.4031 26C4.40086 26 4.39862 26 4.39639 26C4.39415 26 4.39191 26 4.38967 26C4.38743 26 4.38519 26 4.38295 26C4.38071 26 4.37847 26 4.37622 26C4.37398 26 4.37173 26 4.36949 26C4.36724 26 4.365 26 4.36275 26C4.3605 26 4.35825 26 4.356 26V27V28C4.35825 28 4.3605 28 4.36275 28C4.365 28 4.36724 28 4.36949 28C4.37173 28 4.37398 28 4.37622 28C4.37847 28 4.38071 28 4.38295 28C4.38519 28 4.38743 28 4.38967 28C4.39191 28 4.39415 28 4.39639 28C4.39862 28 4.40086 28 4.4031 28C4.40533 28 4.40757 28 4.4098 28C4.41203 28 4.41426 28 4.41649 28C4.41873 28 4.42096 28 4.42318 28C4.42541 28 4.42764 28 4.42987 28C4.4321 28 4.43432 28 4.43655 28C4.43877 28 4.44099 28 4.44322 28C4.44544 28 4.44766 28 4.44988 28C4.4521 28 4.45432 28 4.45654 28C4.45876 28 4.46098 28 4.46319 28C4.46541 28 4.46762 28 4.46984 28C4.47205 28 4.47426 28 4.47648 28C4.47869 28 4.4809 28 4.48311 28C4.48532 28 4.48753 28 4.48974 28C4.49194 28 4.49415 28 4.49636 28C4.49856 28 4.50077 28 4.50297 28C4.50518 28 4.50738 28 4.50958 28C4.51178 28 4.51398 28 4.51618 28C4.51838 28 4.52058 28 4.52278 28C4.52497 28 4.52717 28 4.52937 28C4.53156 28 4.53375 28 4.53595 28C4.53814 28 4.54033 28 4.54252 28C4.54471 28 4.54691 28 4.54909 28C4.55128 28 4.55347 28 4.55566 28C4.55784 28 4.56003 28 4.56221 28C4.5644 28 4.56658 28 4.56877 28C4.57095 28 4.57313 28 4.57531 28C4.57749 28 4.57967 28 4.58185 28C4.58403 28 4.5862 28 4.58838 28C4.59056 28 4.59273 28 4.59491 28C4.59708 28 4.59925 28 4.60143 28C4.6036 28 4.60577 28 4.60794 28C4.61011 28 4.61228 28 4.61445 28C4.61661 28 4.61878 28 4.62095 28C4.62311 28 4.62528 28 4.62744 28C4.6296 28 4.63177 28 4.63393 28C4.63609 28 4.63825 28 4.64041 28C4.64257 28 4.64473 28 4.64689 28C4.64904 28 4.6512 28 4.65335 28C4.65551 28 4.65766 28 4.65982 28C4.66197 28 4.66412 28 4.66627 28C4.66842 28 4.67057 28 4.67272 28C4.67487 28 4.67702 28 4.67917 28C4.68131 28 4.68346 28 4.6856 28C4.68775 28 4.68989 28 4.69203 28C4.69418 28 4.69632 28 4.69846 28C4.7006 28 4.70274 28 4.70488 28C4.70702 28 4.70915 28 4.71129 28C4.71343 28 4.71556 28 4.7177 28C4.71983 28 4.72196 28 4.72409 28C4.72623 28 4.72836 28 4.73049 28C4.73262 28 4.73475 28 4.73688 28C4.739 28 4.74113 28 4.74326 28C4.74538 28 4.74751 28 4.74963 28C4.75175 28 4.75388 28 4.756 28C4.75812 28 4.76024 28 4.76236 28C4.76448 28 4.7666 28 4.76871 28C4.77083 28 4.77295 28 4.77506 28C4.77718 28 4.77929 28 4.78141 28C4.78352 28 4.78563 28 4.78774 28C4.78985 28 4.79196 28 4.79407 28C4.79618 28 4.79829 28 4.8004 28C4.8025 28 4.80461 28 4.80671 28C4.80882 28 4.81092 28 4.81302 28C4.81513 28 4.81723 28 4.81933 28C4.82143 28 4.82353 28 4.82563 28C4.82772 28 4.82982 28 4.83192 28C4.83401 28 4.83611 28 4.8382 28C4.8403 28 4.84239 28 4.84448 28C4.84658 28 4.84867 28 4.85076 28C4.85285 28 4.85494 28 4.85702 28C4.85911 28 4.8612 28 4.86328 28C4.86537 28 4.86745 28 4.86954 28C4.87162 28 4.8737 28 4.87579 28C4.87787 28 4.87995 28 4.88203 28C4.88411 28 4.88618 28 4.88826 28C4.89034 28 4.89242 28 4.89449 28C4.89657 28 4.89864 28 4.90071 28C4.90279 28 4.90486 28 4.90693 28C4.909 28 4.91107 28 4.91314 28C4.91521 28 4.91728 28 4.91934 28C4.92141 28 4.92348 28 4.92554 28C4.92761 28 4.92967 28 4.93173 28C4.93379 28 4.93586 28 4.93792 28C4.93998 28 4.94204 28 4.94409 28C4.94615 28 4.94821 28 4.95027 28C4.95232 28 4.95438 28 4.95643 28C4.95849 28 4.96054 28 4.96259 28C4.96464 28 4.96669 28 4.96874 28C4.97079 28 4.97284 28 4.97489 28C4.97694 28 4.97899 28 4.98103 28C4.98308 28 4.98512 28 4.98717 28C4.98921 28 4.99125 28 4.99329 28C4.99533 28 4.99738 28 4.99941 28C5.00145 28 5.00349 28 5.00553 28C5.00757 28 5.0096 28 5.01164 28C5.01367 28 5.01571 28 5.01774 28C5.01977 28 5.02181 28 5.02384 28C5.02587 28 5.0279 28 5.02993 28C5.03196 28 5.03398 28 5.03601 28C5.03804 28 5.04006 28 5.04209 28C5.04411 28 5.04614 28 5.04816 28C5.05018 28 5.0522 28 5.05422 28C5.05624 28 5.05826 28 5.06028 28C5.0623 28 5.06432 28 5.06633 28C5.06835 28 5.07036 28 5.07238 28C5.07439 28 5.07641 28 5.07842 28C5.08043 28 5.08244 28 5.08445 28C5.08646 28 5.08847 28 5.09048 28C5.09249 28 5.09449 28 5.0965 28C5.0985 28 5.10051 28 5.10251 28C5.10452 28 5.10652 28 5.10852 28C5.11052 28 5.11252 28 5.11452 28C5.11652 28 5.11852 28 5.12052 28C5.12251 28 5.12451 28 5.12651 28C5.1285 28 5.1305 28 5.13249 28C5.13448 28 5.13647 28 5.13846 28C5.14046 28 5.14245 28 5.14443 28C5.14642 28 5.14841 28 5.1504 28C5.15238 28 5.15437 28 5.15635 28C5.15834 28 5.16032 28 5.16231 28C5.16429 28 5.16627 28 5.16825 28C5.17023 28 5.17221 28 5.17419 28C5.17617 28 5.17814 28 5.18012 28C5.1821 28 5.18407 28 5.18605 28C5.18802 28 5.18999 28 5.19197 28C5.19394 28 5.19591 28 5.19788 28C5.19985 28 5.20182 28 5.20378 28C5.20575 28 5.20772 28 5.20969 28C5.21165 28 5.21362 28 5.21558 28C5.21754 28 5.21951 28 5.22147 28C5.22343 28 5.22539 28 5.22735 28C5.22931 28 5.23127 28 5.23322 28C5.23518 28 5.23714 28 5.23909 28C5.24105 28 5.243 28 5.24496 28C5.24691 28 5.24886 28 5.25081 28C5.25276 28 5.25471 28 5.25666 28C5.25861 28 5.26056 28 5.2625 28C5.26445 28 5.2664 28 5.26834 28C5.27029 28 5.27223 28 5.27417 28C5.27611 28 5.27806 28 5.28 28C5.28194 28 5.28388 28 5.28582 28C5.28775 28 5.28969 28 5.29163 28C5.29356 28 5.2955 28 5.29743 28C5.29937 28 5.3013 28 5.30323 28C5.30516 28 5.3071 28 5.30902 28C5.31095 28 5.31288 28 5.31481 28C5.31674 28 5.31867 28 5.32059 28C5.32252 28 5.32444 28 5.32637 28C5.32829 28 5.33021 28 5.33213 28C5.33405 28 5.33598 28 5.33789 28C5.33981 28 5.34173 28 5.34365 28C5.34557 28 5.34748 28 5.3494 28C5.35131 28 5.35323 28 5.35514 28C5.35705 28 5.35897 28 5.36088 28C5.36279 28 5.3647 28 5.36661 28C5.36852 28 5.37042 28 5.37233 28C5.37424 28 5.37614 28 5.37805 28C5.37995 28 5.38186 28 5.38376 28C5.38566 28 5.38756 28 5.38946 28C5.39136 28 5.39326 28 5.39516 28C5.39706 28 5.39896 28 5.40085 28C5.40275 28 5.40464 28 5.40654 28C5.40843 28 5.41033 28 5.41222 28C5.41411 28 5.416 28 5.41789 28C5.41978 28 5.42167 28 5.42356 28C5.42545 28 5.42733 28 5.42922 28C5.4311 28 5.43299 28 5.43487 28C5.43676 28 5.43864 28 5.44052 28C5.4424 28 5.44428 28 5.44616 28C5.44804 28 5.44992 28 5.4518 28C5.45367 28 5.45555 28 5.45742 28C5.4593 28 5.46117 28 5.46305 28C5.46492 28 5.46679 28 5.46866 28C5.47053 28 5.4724 28 5.47427 28C5.47614 28 5.47801 28 5.47988 28C5.48174 28 5.48361 28 5.48547 28C5.48734 28 5.4892 28 5.49106 28C5.49293 28 5.49479 28 5.49665 28C5.49851 28 5.50037 28 5.50223 28C5.50409 28 5.50594 28 5.5078 28C5.50965 28 5.51151 28 5.51336 28C5.51522 28 5.51707 28 5.51892 28C5.52078 28 5.52263 28 5.52448 28C5.52633 28 5.52817 28 5.53002 28C5.53187 28 5.53372 28 5.53556 28C5.53741 28 5.53925 28 5.5411 28C5.54294 28 5.54478 28 5.54662 28C5.54847 28 5.55031 28 5.55215 28C5.55399 28 5.55582 28 5.55766 28C5.5595 28 5.56133 28 5.56317 28C5.565 28 5.56684 28 5.56867 28C5.5705 28 5.57234 28 5.57417 28C5.576 28 5.57783 28 5.57966 28C5.58149 28 5.58331 28 5.58514 28C5.58697 28 5.58879 28 5.59062 28C5.59244 28 5.59427 28 5.59609 28C5.59791 28 5.59973 28 5.60155 28C5.60337 28 5.60519 28 5.60701 28C5.60883 28 5.61065 28 5.61246 28C5.61428 28 5.61609 28 5.61791 28C5.61972 28 5.62154 28 5.62335 28C5.62516 28 5.62697 28 5.62878 28C5.63059 28 5.6324 28 5.63421 28C5.63602 28 5.63782 28 5.63963 28C5.64143 28 5.64324 28 5.64504 28C5.64685 28 5.64865 28 5.65045 28C5.65225 28 5.65405 28 5.65585 28C5.65765 28 5.65945 28 5.66125 28C5.66304 28 5.66484 28 5.66663 28C5.66843 28 5.67022 28 5.67202 28C5.67381 28 5.6756 28 5.67739 28C5.67918 28 5.68097 28 5.68276 28C5.68455 28 5.68634 28 5.68813 28C5.68991 28 5.6917 28 5.69348 28C5.69527 28 5.69705 28 5.69883 28C5.70062 28 5.7024 28 5.70418 28C5.70596 28 5.70774 28 5.70952 28C5.71129 28 5.71307 28 5.71485 28C5.71662 28 5.7184 28 5.72017 28C5.72195 28 5.72372 28 5.72549 28C5.72726 28 5.72904 28 5.73081 28C5.73258 28 5.73434 28 5.73611 28C5.73788 28 5.73965 28 5.74141 28C5.74318 28 5.74494 28 5.74671 28C5.74847 28 5.75023 28 5.75199 28C5.75376 28 5.75552 28 5.75727 28C5.75903 28 5.76079 28 5.76255 28C5.76431 28 5.76606 28 5.76782 28C5.76957 28 5.77133 28 5.77308 28C5.77483 28 5.77659 28 5.77834 28C5.78009 28 5.78184 28 5.78359 28C5.78534 28 5.78708 28 5.78883 28C5.79058 28 5.79232 28 5.79407 28C5.79581 28 5.79755 28 5.7993 28C5.80104 28 5.80278 28 5.80452 28C5.80626 28 5.808 28 5.80974 28C5.81148 28 5.81322 28 5.81495 28C5.81669 28 5.81842 28 5.82016 28C5.82189 28 5.82362 28 5.82536 28C5.82709 28 5.82882 28 5.83055 28C5.83228 28 5.83401 28 5.83574 28C5.83746 28 5.83919 28 5.84092 28C5.84264 28 5.84437 28 5.84609 28C5.84781 28 5.84954 28 5.85126 28C5.85298 28 5.8547 28 5.85642 28C5.85814 28 5.85986 28 5.86157 28C5.86329 28 5.86501 28 5.86672 28C5.86844 28 5.87015 28 5.87186 28C5.87358 28 5.87529 28 5.877 28C5.87871 28 5.88042 28 5.88213 28C5.88384 28 5.88555 28 5.88725 28C5.88896 28 5.89067 28 5.89237 28C5.89407 28 5.89578 28 5.89748 28C5.89918 28 5.90089 28 5.90259 28C5.90429 28 5.90599 28 5.90768 28C5.90938 28 5.91108 28 5.91278 28C5.91447 28 5.91617 28 5.91786 28C5.91955 28 5.92125 28 5.92294 28C5.92463 28 5.92632 28 5.92801 28C5.9297 28 5.93139 28 5.93308 28C5.93477 28 5.93645 28 5.93814 28C5.93983 28 5.94151 28 5.94319 28C5.94488 28 5.94656 28 5.94824 28C5.94992 28 5.9516 28 5.95328 28C5.95496 28 5.95664 28 5.95832 28C5.95999 28 5.96167 28 5.96335 28C5.96502 28 5.96669 28 5.96837 28C5.97004 28 5.97171 28 5.97338 28C5.97505 28 5.97672 28 5.97839 28C5.98006 28 5.98173 28 5.9834 28C5.98506 28 5.98673 28 5.98839 28C5.99006 28 5.99172 28 5.99338 28C5.99505 28 5.99671 28 5.99837 28C6.00003 28 6.00169 28 6.00335 28C6.005 28 6.00666 28 6.00832 28C6.00997 28 6.01163 28 6.01328 28C6.01494 28 6.01659 28 6.01824 28C6.01989 28 6.02155 28 6.0232 28C6.02485 28 6.02649 28 6.02814 28C6.02979 28 6.03144 28 6.03308 28C6.03473 28 6.03637 28 6.03802 28C6.03966 28 6.0413 28 6.04294 28C6.04458 28 6.04623 28 6.04786 28C6.0495 28 6.05114 28 6.05278 28C6.05442 28 6.05605 28 6.05769 28C6.05932 28 6.06096 28 6.06259 28C6.06422 28 6.06586 28 6.06749 28C6.06912 28 6.07075 28 6.07238 28C6.074 28 6.07563 28 6.07726 28C6.07889 28 6.08051 28 6.08214 28C6.08376 28 6.08538 28 6.08701 28C6.08863 28 6.09025 28 6.09187 28C6.09349 28 6.09511 28 6.09673 28C6.09835 28 6.09996 28 6.10158 28C6.1032 28 6.10481 28 6.10643 28C6.10804 28 6.10965 28 6.11127 28C6.11288 28 6.11449 28 6.1161 28C6.11771 28 6.11932 28 6.12092 28C6.12253 28 6.12414 28 6.12574 28C6.12735 28 6.12895 28 6.13056 28C6.13216 28 6.13376 28 6.13537 28C6.13697 28 6.13857 28 6.14017 28C6.14177 28 6.14336 28 6.14496 28C6.14656 28 6.14816 28 6.14975 28C6.15135 28 6.15294 28 6.15453 28C6.15613 28 6.15772 28 6.15931 28C6.1609 28 6.16249 28 6.16408 28C6.16567 28 6.16725 28 6.16884 28C6.17043 28 6.17201 28 6.1736 28C6.17518 28 6.17677 28 6.17835 28C6.17993 28 6.18151 28 6.18309 28C6.18467 28 6.18625 28 6.18783 28C6.18941 28 6.19099 28 6.19256 28C6.19414 28 6.19571 28 6.19729 28C6.19886 28 6.20044 28 6.20201 28C6.20358 28 6.20515 28 6.20672 28C6.20829 28 6.20986 28 6.21143 28C6.21299 28 6.21456 28 6.21613 28C6.21769 28 6.21926 28 6.22082 28C6.22238 28 6.22395 28 6.22551 28C6.22707 28 6.22863 28 6.23019 28C6.23175 28 6.23331 28 6.23486 28C6.23642 28 6.23798 28 6.23953 28C6.24109 28 6.24264 28 6.24419 28C6.24575 28 6.2473 28 6.24885 28C6.2504 28 6.25195 28 6.2535 28C6.25505 28 6.2566 28 6.25814 28C6.25969 28 6.26124 28 6.26278 28C6.26432 28 6.26587 28 6.26741 28C6.26895 28 6.27049 28 6.27203 28C6.27358 28 6.27511 28 6.27665 28C6.27819 28 6.27973 28 6.28126 28C6.2828 28 6.28434 28 6.28587 28C6.2874 28 6.28894 28 6.29047 28C6.292 28 6.29353 28 6.29506 28C6.29659 28 6.29812 28 6.29965 28C6.30118 28 6.3027 28 6.30423 28C6.30575 28 6.30728 28 6.3088 28C6.31033 28 6.31185 28 6.31337 28C6.31489 28 6.31641 28 6.31793 28C6.31945 28 6.32097 28 6.32248 28C6.324 28 6.32552 28 6.32703 28C6.32855 28 6.33006 28 6.33158 28C6.33309 28 6.3346 28 6.33611 28C6.33762 28 6.33913 28 6.34064 28C6.34215 28 6.34366 28 6.34516 28C6.34667 28 6.34818 28 6.34968 28C6.35119 28 6.35269 28 6.35419 28C6.35569 28 6.3572 28 6.3587 28C6.3602 28 6.3617 28 6.36319 28C6.36469 28 6.36619 28 6.36769 28C6.36918 28 6.37068 28 6.37217 28C6.37366 28 6.37516 28 6.37665 28C6.37814 28 6.37963 28 6.38112 28C6.38261 28 6.3841 28 6.38559 28C6.38708 28 6.38856 28 6.39005 28C6.39153 28 6.39302 28 6.3945 28C6.39599 28 6.39747 28 6.39895 28C6.40043 28 6.40191 28 6.40339 28C6.40487 28 6.40635 28 6.40783 28C6.4093 28 6.41078 28 6.41225 28C6.41373 28 6.4152 28 6.41668 28C6.41815 28 6.41962 28 6.42109 28C6.42256 28 6.42403 28 6.4255 28C6.42697 28 6.42844 28 6.4299 28C6.43137 28 6.43284 28 6.4343 28C6.43577 28 6.43723 28 6.43869 28C6.44015 28 6.44162 28 6.44308 28C6.44454 28 6.446 28 6.44745 28C6.44891 28 6.45037 28 6.45183 28C6.45328 28 6.45474 28 6.45619 28C6.45765 28 6.4591 28 6.46055 28C6.462 28 6.46345 28 6.4649 28C6.46635 28 6.4678 28 6.46925 28C6.4707 28 6.47214 28 6.47359 28C6.47503 28 6.47648 28 6.47792 28C6.47937 28 6.48081 28 6.48225 28C6.48369 28 6.48513 28 6.48657 28C6.48801 28 6.48945 28 6.49089 28C6.49232 28 6.49376 28 6.49519 28C6.49663 28 6.49806 28 6.4995 28C6.50093 28 6.50236 28 6.50379 28C6.50522 28 6.50665 28 6.50808 28C6.50951 28 6.51094 28 6.51236 28C6.51379 28 6.51522 28 6.51664 28C6.51807 28 6.51949 28 6.52091 28C6.52234 28 6.52376 28 6.52518 28C6.5266 28 6.52802 28 6.52943 28C6.53085 28 6.53227 28 6.53369 28C6.5351 28 6.53652 28 6.53793 28C6.53935 28 6.54076 28 6.54217 28C6.54358 28 6.54499 28 6.5464 28C6.54781 28 6.54922 28 6.55063 28C6.55204 28 6.55344 28 6.55485 28C6.55625 28 6.55766 28 6.55906 28C6.56047 28 6.56187 28 6.56327 28C6.56467 28 6.56607 28 6.56747 28C6.56887 28 6.57027 28 6.57167 28C6.57306 28 6.57446 28 6.57585 28C6.57725 28 6.57864 28 6.58004 28C6.58143 28 6.58282 28 6.58421 28C6.5856 28 6.58699 28 6.58838 28C6.58977 28 6.59116 28 6.59255 28C6.59393 28 6.59532 28 6.5967 28C6.59809 28 6.59947 28 6.60085 28C6.60223 28 6.60362 28 6.605 28C6.60638 28 6.60776 28 6.60913 28C6.61051 28 6.61189 28 6.61327 28C6.61464 28 6.61602 28 6.61739 28C6.61876 28 6.62014 28 6.62151 28C6.62288 28 6.62425 28 6.62562 28C6.62699 28 6.62836 28 6.62973 28C6.6311 28 6.63246 28 6.63383 28C6.63519 28 6.63656 28 6.63792 28C6.63929 28 6.64065 28 6.64201 28C6.64337 28 6.64473 28 6.64609 28C6.64745 28 6.64881 28 6.65017 28C6.65152 28 6.65288 28 6.65423 28C6.65559 28 6.65694 28 6.6583 28C6.65965 28 6.661 28 6.66235 28C6.6637 28 6.66505 28 6.6664 28C6.66775 28 6.6691 28 6.67044 28C6.67179 28 6.67314 28 6.67448 28C6.67583 28 6.67717 28 6.67851 28C6.67985 28 6.6812 28 6.68254 28C6.68388 28 6.68521 28 6.68655 28C6.68789 28 6.68923 28 6.69056 28C6.6919 28 6.69324 28 6.69457 28C6.6959 28 6.69724 28 6.69857 28C6.6999 28 6.70123 28 6.70256 28C6.70389 28 6.70522 28 6.70655 28C6.70788 28 6.7092 28 6.71053 28C6.71185 28 6.71318 28 6.7145 28C6.71582 28 6.71715 28 6.71847 28C6.71979 28 6.72111 28 6.72243 28C6.72375 28 6.72507 28 6.72638 28C6.7277 28 6.72902 28 6.73033 28C6.73165 28 6.73296 28 6.73427 28C6.73559 28 6.7369 28 6.73821 28C6.73952 28 6.74083 28 6.74214 28C6.74345 28 6.74476 28 6.74606 28C6.74737 28 6.74867 28 6.74998 28C6.75128 28 6.75259 28 6.75389 28C6.75519 28 6.75649 28 6.75779 28C6.75909 28 6.76039 28 6.76169 28C6.76299 28 6.76429 28 6.76558 28C6.76688 28 6.76817 28 6.76947 28C6.77076 28 6.77206 28 6.77335 28C6.77464 28 6.77593 28 6.77722 28C6.77851 28 6.7798 28 6.78109 28C6.78237 28 6.78366 28 6.78495 28C6.78623 28 6.78752 28 6.7888 28C6.79008 28 6.79137 28 6.79265 28C6.79393 28 6.79521 28 6.79649 28C6.79777 28 6.79905 28 6.80032 28C6.8016 28 6.80288 28 6.80415 28C6.80543 28 6.8067 28 6.80797 28C6.80925 28 6.81052 28 6.81179 28C6.81306 28 6.81433 28 6.8156 28C6.81687 28 6.81813 28 6.8194 28C6.82067 28 6.82193 28 6.8232 28C6.82446 28 6.82573 28 6.82699 28C6.82825 28 6.82951 28 6.83077 28C6.83203 28 6.83329 28 6.83455 28C6.83581 28 6.83707 28 6.83832 28C6.83958 28 6.84083 28 6.84209 28C6.84334 28 6.84459 28 6.84585 28C6.8471 28 6.84835 28 6.8496 28C6.85085 28 6.8521 28 6.85334 28C6.85459 28 6.85584 28 6.85708 28C6.85833 28 6.85957 28 6.86082 28C6.86206 28 6.8633 28 6.86454 28C6.86579 28 6.86703 28 6.86827 28C6.8695 28 6.87074 28 6.87198 28C6.87322 28 6.87445 28 6.87569 28C6.87692 28 6.87816 28 6.87939 28C6.88062 28 6.88186 28 6.88309 28C6.88432 28 6.88555 28 6.88678 28C6.888 28 6.88923 28 6.89046 28C6.89169 28 6.89291 28 6.89414 28C6.89536 28 6.89658 28 6.89781 28C6.89903 28 6.90025 28 6.90147 28C6.90269 28 6.90391 28 6.90513 28C6.90635 28 6.90756 28 6.90878 28C6.91 28 6.91121 28 6.91242 28C6.91364 28 6.91485 28 6.91606 28C6.91727 28 6.91849 28 6.9197 28C6.92091 28 6.92211 28 6.92332 28C6.92453 28 6.92574 28 6.92694 28C6.92815 28 6.92935 28 6.93056 28C6.93176 28 6.93296 28 6.93416 28C6.93536 28 6.93656 28 6.93776 28C6.93896 28 6.94016 28 6.94136 28C6.94255 28 6.94375 28 6.94495 28C6.94614 28 6.94734 28 6.94853 28C6.94972 28 6.95091 28 6.9521 28C6.95329 28 6.95448 28 6.95567 28C6.95686 28 6.95805 28 6.95924 28C6.96042 28 6.96161 28 6.96279 28C6.96398 28 6.96516 28 6.96634 28C6.96753 28 6.96871 28 6.96989 28C6.97107 28 6.97225 28 6.97342 28C6.9746 28 6.97578 28 6.97696 28C6.97813 28 6.97931 28 6.98048 28C6.98166 28 6.98283 28 6.984 28V27ZM4.356 27V26C3.21578 26 2.63524 25.9067 2.43275 25.8233L2.052 26.748L1.67125 27.6727C2.28476 27.9253 3.24022 28 4.356 28V27ZM2.052 26.748L2.43275 25.8233C2.34004 25.7851 2.3501 25.7683 2.38429 25.8126C2.40198 25.8354 2.41815 25.8649 2.42875 25.8973C2.43905 25.9288 2.44 25.9506 2.44 25.956H1.44H0.44C0.44 26.3387 0.553441 26.7142 0.801715 27.0354C1.0399 27.3437 1.35596 27.5429 1.67125 27.6727L2.052 26.748ZM1.44 25.956H2.44V3.24H1.44H0.44V25.956H1.44ZM1.44 3.24H2.44C2.44 3.48324 2.25983 3.50333 2.49725 3.36321C2.72524 3.22865 3.15055 3.06991 3.84443 2.92204L3.636 1.944L3.42757 0.965962C2.65746 1.13008 1.98476 1.34334 1.48075 1.64079C0.986172 1.93267 0.44 2.44476 0.44 3.24H1.44ZM3.636 1.944L3.85626 2.91944C5.26511 2.60131 6.77472 2.44 8.388 2.44V1.44V0.439999C6.64128 0.439999 4.98289 0.614685 3.41574 0.968557L3.636 1.944ZM8.388 1.44V2.44C10.0352 2.44 10.9999 2.66132 11.4735 2.94549L11.988 2.088L12.5025 1.23051C11.5361 0.650674 10.1008 0.439999 8.388 0.439999V1.44ZM11.988 2.088L11.4735 2.94549C12.1148 3.33026 12.2546 3.60566 12.2779 3.69853L13.248 3.456L14.2181 3.21346C14.0014 2.34633 13.3012 1.70974 12.5025 1.23051L11.988 2.088ZM13.248 3.456L12.2796 3.70543L14.7276 13.2094L15.696 12.96L16.6644 12.7106L14.2164 3.20656L13.248 3.456ZM15.696 12.96V13.96H16.02V12.96V11.96H15.696V12.96ZM16.02 12.96L16.9892 13.2062L19.2932 4.13415L18.324 3.888L17.3548 3.64185L15.0508 12.7138L16.02 12.96ZM18.324 3.888L19.292 4.13896C19.2967 4.12076 19.3388 3.99339 19.6209 3.78935C19.9011 3.58679 20.3432 3.36441 20.99 3.14137L20.664 2.196L20.338 1.25063C19.5928 1.50759 18.9489 1.80721 18.4491 2.16865C17.9512 2.5286 17.5193 3.00724 17.356 3.63704L18.324 3.888ZM20.664 2.196L20.9993 3.1381C22.2958 2.67665 23.7289 2.44 25.308 2.44V1.44V0.439999C23.5271 0.439999 21.8642 0.707347 20.3287 1.2539L20.664 2.196ZM25.308 1.44V2.44C26.9664 2.44 28.0678 2.57403 28.6998 2.78468L29.016 1.836L29.3322 0.887315C28.3802 0.569971 27.0096 0.439999 25.308 0.439999V1.44ZM29.016 1.836L28.7082 2.78744C29.0618 2.90183 29.233 3.00416 29.2983 3.05793C29.3254 3.08028 29.3098 3.07451 29.2867 3.03233C29.2602 2.98406 29.24 2.91691 29.24 2.844H30.24H31.24C31.24 2.25754 30.9309 1.81155 30.5697 1.51407C30.227 1.23184 29.7862 1.03416 29.3238 0.884554L29.016 1.836ZM30.24 2.844H29.24V25.956H30.24H31.24V2.844H30.24ZM30.24 25.956H29.24C29.24 25.6254 29.4317 25.4434 29.4756 25.4072C29.5147 25.3749 29.5057 25.3948 29.3813 25.4407C29.1414 25.529 28.7132 25.6285 28.049 25.7217L28.188 26.712L28.327 27.7023C29.0308 27.6035 29.6286 27.481 30.0727 27.3173C30.2903 27.2372 30.5378 27.1236 30.7479 26.9503C30.9629 26.7731 31.24 26.4426 31.24 25.956H30.24ZM28.188 26.712L28.049 25.7217C26.7418 25.9052 25.1233 26 23.184 26V27V28C25.1807 28 26.8982 27.9028 28.327 27.7023L28.188 26.712ZM23.184 27V26C22.2315 26 21.6315 25.9123 21.3034 25.7962C21.1441 25.7399 21.1198 25.701 21.1442 25.7269C21.1902 25.7756 21.232 25.8665 21.232 25.956H20.232H19.232C19.232 26.3935 19.3968 26.7889 19.6888 27.0986C19.9592 27.3855 20.3039 27.5641 20.6366 27.6818C21.2925 27.9137 22.1685 28 23.184 28V27ZM20.232 25.956H21.232C21.232 24.1072 21.4323 20.7739 21.8405 15.9239L20.844 15.84L19.8475 15.7561C19.4397 20.6021 19.232 24.0128 19.232 25.956H20.232ZM20.844 15.84V14.84H20.52V15.84V16.84H20.844V15.84ZM20.52 15.84L19.5393 15.6446L17.6673 25.0406L18.648 25.236L19.6287 25.4314L21.5007 16.0354L20.52 15.84ZM18.648 25.236L17.6674 25.0399C17.6715 25.0196 17.68 24.9966 17.6923 24.9759C17.7041 24.9561 17.713 24.9492 17.7084 24.9533C17.6942 24.9658 17.6246 25.0179 17.4448 25.0751L17.748 26.028L18.0512 26.9809C18.7329 26.764 19.4528 26.3109 19.6286 25.4321L18.648 25.236ZM17.748 26.028L17.4318 25.0793C17.0856 25.1947 16.4499 25.28 15.444 25.28V26.28V27.28C16.5021 27.28 17.4024 27.1973 18.0642 26.9767L17.748 26.028ZM15.444 26.28V25.28C14.9459 25.28 14.5707 25.2624 14.3055 25.2323C14.1731 25.2174 14.0841 25.201 14.0297 25.1876C13.9655 25.1718 13.989 25.1696 14.0505 25.2065L13.536 26.064L13.0215 26.9215C13.344 27.115 13.7576 27.1831 14.0805 27.2197C14.4514 27.2616 14.9101 27.28 15.444 27.28V26.28ZM13.536 26.064L14.0907 25.2319C14.148 25.2702 14.1622 25.3049 14.1526 25.2864C14.1406 25.2634 14.1125 25.1967 14.0888 25.0622L13.104 25.236L12.1192 25.4098C12.2112 25.9313 12.4337 26.531 12.9813 26.896L13.536 26.064ZM13.104 25.236L14.0833 25.0334L12.1393 15.6374L11.16 15.84L10.1807 16.0426L12.1247 25.4386L13.104 25.236ZM11.16 15.84V14.84H10.836V15.84V16.84H11.16V15.84ZM10.836 15.84L9.8398 15.927C10.2722 20.8755 10.484 24.2059 10.484 25.956H11.484H12.484C12.484 24.1061 12.2638 20.6925 11.8322 15.753L10.836 15.84ZM11.484 25.956H10.484C10.484 25.64 10.6953 25.5095 10.6589 25.533C10.6146 25.5618 10.4645 25.634 10.133 25.7109C9.48535 25.8611 8.44317 25.9647 6.96001 26.0003L6.984 27L7.00799 27.9997C8.52483 27.9633 9.73265 27.8569 10.585 27.6591C11.0035 27.562 11.4159 27.4257 11.7466 27.2115C12.0852 26.992 12.484 26.584 12.484 25.956H11.484ZM47.0118 26.712L47.1418 27.7035L47.0118 26.712ZM39.8118 26.784L39.4493 27.716L39.4722 27.7249L39.4956 27.7327L39.8118 26.784ZM39.1638 19.692H40.1638V19.4606L40.0622 19.2528L39.1638 19.692ZM34.4478 2.268L34.7725 3.21382L34.4478 2.268ZM43.1598 3.456L44.1548 3.35613L44.1541 3.34947L43.1598 3.456ZM44.1318 13.14L43.1368 13.2399L43.2271 14.14H44.1318V13.14ZM44.5278 13.14V14.14H45.4579L45.5252 13.2123L44.5278 13.14ZM45.2118 3.708L46.2092 3.78033L46.2092 3.77925L45.2118 3.708ZM47.7678 2.088L48.007 3.05905L48.0202 3.05562L47.7678 2.088ZM49.2078 19.692L48.3011 19.2701L48.2078 19.4707V19.692H49.2078ZM49.2078 25.956H48.2078C48.2078 25.5964 48.4285 25.411 48.4602 25.3866C48.4934 25.3611 48.4731 25.3853 48.3333 25.4335C48.0644 25.526 47.5956 25.6269 46.8817 25.7205L47.0118 26.712L47.1418 27.7035C47.892 27.6051 48.5212 27.484 48.9843 27.3245C49.2104 27.2467 49.4647 27.1374 49.6809 26.9709C49.8956 26.8055 50.2078 26.4716 50.2078 25.956H49.2078ZM47.0118 26.712L46.8817 25.7205C45.4605 25.9069 44.0399 26 42.6198 26V27V28C44.1276 28 45.6351 27.9011 47.1418 27.7035L47.0118 26.712ZM42.6198 27V26C41.9134 26 41.3473 25.9822 40.9145 25.9489C40.461 25.9141 40.2215 25.8665 40.128 25.8353L39.8118 26.784L39.4956 27.7327C39.8341 27.8455 40.2786 27.9059 40.7611 27.9431C41.2642 27.9818 41.8861 28 42.6198 28V27ZM39.8118 26.784L40.1742 25.852C40.0732 25.8127 40.0803 25.7926 40.1133 25.8347C40.1302 25.8563 40.1452 25.8837 40.1547 25.9127C40.1638 25.9407 40.1638 25.9575 40.1638 25.956H39.1638H38.1638C38.1638 26.3487 38.2792 26.7363 38.5383 27.0673C38.7872 27.3854 39.1184 27.5873 39.4493 27.716L39.8118 26.784ZM39.1638 25.956H40.1638V19.692H39.1638H38.1638V25.956H39.1638ZM39.1638 19.692L40.0622 19.2528C37.6876 14.3957 35.9111 10.657 34.7297 8.03164C34.1384 6.71755 33.7011 5.69348 33.4135 4.95258C33.2693 4.58115 33.1678 4.29384 33.1038 4.08373C33.0289 3.83803 33.0358 3.79218 33.0358 3.852H32.0358H31.0358C31.0358 4.12182 31.1169 4.42472 31.1906 4.66652C31.2751 4.94391 31.3963 5.28285 31.5491 5.67642C31.8554 6.46552 32.3092 7.52645 32.9059 8.85236C34.1005 11.507 35.888 15.2683 38.2654 20.1312L39.1638 19.692ZM32.0358 3.852H33.0358C33.0358 4.14958 32.8241 4.15266 33.1877 3.91387C33.4861 3.71791 33.997 3.48001 34.7725 3.21382L34.4478 2.268L34.1231 1.32218C33.2905 1.60798 32.5955 1.91009 32.0899 2.24213C31.6495 2.53134 31.0358 3.05042 31.0358 3.852H32.0358ZM34.4478 2.268L34.7725 3.21382C36.2714 2.69927 37.8533 2.44 39.5238 2.44V1.44V0.439999C37.6423 0.439999 35.8402 0.732724 34.1231 1.32218L34.4478 2.268ZM39.5238 1.44V2.44C40.5914 2.44 41.2669 2.60176 41.6579 2.81856C41.9878 3.00147 42.1292 3.2238 42.1655 3.56253L43.1598 3.456L44.1541 3.34947C44.0464 2.34419 43.5098 1.55853 42.6277 1.06943C41.8067 0.614234 40.7361 0.439999 39.5238 0.439999V1.44ZM43.1598 3.456L42.1648 3.55587L43.1368 13.2399L44.1318 13.14L45.1268 13.0401L44.1548 3.35613L43.1598 3.456ZM44.1318 13.14V14.14H44.5278V13.14V12.14H44.1318V13.14ZM44.5278 13.14L45.5252 13.2123L46.2092 3.78033L45.2118 3.708L44.2144 3.63567L43.5304 13.0677L44.5278 13.14ZM45.2118 3.708L46.2092 3.77925C46.2011 3.89389 46.1255 3.83162 46.4221 3.64364C46.7153 3.45784 47.222 3.25238 48.007 3.05896L47.7678 2.088L47.5286 1.11703C46.6576 1.33162 45.9103 1.60016 45.3514 1.95436C44.796 2.30638 44.2705 2.85011 44.2143 3.63675L45.2118 3.708ZM47.7678 2.088L48.0202 3.05562C49.6058 2.64197 51.0926 2.44 52.4838 2.44V1.44V0.439999C50.899 0.439999 49.2417 0.670027 47.5154 1.12038L47.7678 2.088ZM52.4838 1.44V2.44C53.9453 2.44 54.6839 2.66611 54.9798 2.888L55.5798 2.088L56.1798 1.288C55.3236 0.64589 53.9982 0.439999 52.4838 0.439999V1.44ZM55.5798 2.088L54.9798 2.888C55.4345 3.22902 55.4438 3.42429 55.4438 3.456H56.4438H57.4438C57.4438 2.52771 56.8771 1.81098 56.1798 1.288L55.5798 2.088ZM56.4438 3.456H55.4438C55.4438 3.33191 55.4722 3.25984 55.4526 3.32965C55.4425 3.3658 55.4226 3.42846 55.3886 3.52414C55.3211 3.71366 55.2151 3.98583 55.0666 4.34707C54.7707 5.06691 54.3232 6.09962 53.7214 7.44992C52.5188 10.1483 50.7125 14.0874 48.3011 19.2701L49.2078 19.692L50.1144 20.1139C52.5271 14.9286 54.3388 10.9777 55.5482 8.26408C56.1524 6.90838 56.6093 5.85458 56.9164 5.10743C57.0695 4.73516 57.1895 4.42871 57.2729 4.19448C57.3142 4.07829 57.3508 3.96779 57.3784 3.8695C57.3965 3.80488 57.4438 3.63709 57.4438 3.456H56.4438ZM49.2078 19.692H48.2078V25.956H49.2078H50.2078V19.692H49.2078ZM74.1504 26.64L74.0225 25.6482L74.0204 25.6485L74.1504 26.64ZM66.9504 26.676L67.3312 25.7513L66.9504 26.676ZM68.3544 2.16L68.0233 1.21638L68.0181 1.21826L68.3544 2.16ZM75.9144 2.304L75.1144 2.90403L75.1201 2.91145L75.9144 2.304ZM76.3824 9.36H75.3824V10.36H76.3824V9.36ZM76.6704 9.36V10.36H77.6704V9.36H76.6704ZM77.7504 6.372L76.8181 6.01047L76.8171 6.01302L77.7504 6.372ZM85.7064 2.124L85.3966 3.0748L85.3969 3.07487L85.7064 2.124ZM88.3704 3.6L87.7137 4.35408L87.7207 4.3602L87.7278 4.36619L88.3704 3.6ZM88.0104 8.496L87.1939 7.91876L87.1919 7.92157L88.0104 8.496ZM83.6184 14.004L82.8581 13.3545L82.2729 14.0396L82.8934 14.6927L83.6184 14.004ZM85.3464 15.84L84.6162 16.5232L85.3464 15.84ZM88.1184 19.188L87.3277 19.8002L87.3332 19.8073L87.3388 19.8143L88.1184 19.188ZM88.1904 24.516L88.7766 25.3263L88.7877 25.318L88.1904 24.516ZM84.5904 26.532L84.9588 27.4617L84.9663 27.4587L84.9738 27.4556L84.5904 26.532ZM80.0544 25.452L79.1811 25.9391L79.1867 25.9491L79.1925 25.959L80.0544 25.452ZM77.4984 19.872L78.4244 19.4944L77.7978 17.9576L76.7319 19.2298L77.4984 19.872ZM76.3824 21.204L75.6159 20.5618L75.3824 20.8404V21.204H76.3824ZM76.3824 25.884H75.3824C75.3824 25.5173 75.6106 25.3313 75.6388 25.3098C75.6704 25.2859 75.6473 25.3112 75.5036 25.3599C75.2276 25.4534 74.7486 25.5545 74.0225 25.6482L74.1504 26.64L74.2784 27.6318C75.0402 27.5335 75.6773 27.4126 76.1452 27.2541C76.3736 27.1768 76.6295 27.0686 76.847 26.9037C77.0613 26.7412 77.3824 26.4067 77.3824 25.884H76.3824ZM74.1504 26.64L74.0204 25.6485C72.5992 25.8349 71.1786 25.928 69.7584 25.928V26.928V27.928C71.2663 27.928 72.7737 27.8291 74.2805 27.6315L74.1504 26.64ZM69.7584 26.928V25.928C69.0418 25.928 68.4745 25.9073 68.0478 25.869C67.5933 25.8282 67.3863 25.774 67.3312 25.7513L66.9504 26.676L66.5697 27.6007C66.9226 27.746 67.3876 27.8178 67.8691 27.861C68.3783 27.9067 69.0111 27.928 69.7584 27.928V26.928ZM66.9504 26.676L67.3312 25.7513C67.2385 25.7132 67.2485 25.6963 67.2827 25.7406C67.3004 25.7634 67.3166 25.7929 67.3272 25.8253C67.3375 25.8568 67.3384 25.8786 67.3384 25.884H66.3384H65.3384C65.3384 26.2667 65.4519 26.6422 65.7001 26.9634C65.9383 27.2717 66.2544 27.4709 66.5697 27.6007L66.9504 26.676ZM66.3384 25.884H67.3384V3.816H66.3384H65.3384V25.884H66.3384ZM66.3384 3.816H67.3384C67.3384 3.90817 67.2768 3.87129 67.4772 3.70673C67.6854 3.53569 68.0669 3.32455 68.6908 3.10174L68.3544 2.16L68.0181 1.21826C67.298 1.47545 66.6715 1.78031 66.2077 2.16127C65.736 2.54871 65.3384 3.09983 65.3384 3.816H66.3384ZM68.3544 2.16L68.6855 3.1036C69.9263 2.66825 71.3827 2.44 73.0704 2.44V1.44V0.439999C71.2062 0.439999 69.5186 0.691744 68.0234 1.2164L68.3544 2.16ZM73.0704 1.44V2.44C73.7462 2.44 74.2424 2.50758 74.5888 2.61282C74.9343 2.71779 75.0661 2.83949 75.1144 2.904L75.9144 2.304L76.7144 1.704C76.3308 1.1925 75.7726 0.88221 75.1701 0.699178C74.5685 0.516414 73.8586 0.439999 73.0704 0.439999V1.44ZM75.9144 2.304L75.1201 2.91145C75.3654 3.23221 75.3824 3.39257 75.3824 3.42H76.3824H77.3824C77.3824 2.77543 77.0875 2.19178 76.7088 1.69655L75.9144 2.304ZM76.3824 3.42H75.3824V9.36H76.3824H77.3824V3.42H76.3824ZM76.3824 9.36V10.36H76.6704V9.36V8.36H76.3824V9.36ZM76.6704 9.36H77.6704C77.6704 9.49643 77.6374 9.59245 77.6538 9.53053C77.6586 9.51253 77.6695 9.47527 77.6896 9.41275C77.7293 9.28972 77.7922 9.10818 77.8809 8.86292C78.0574 8.37463 78.3245 7.66516 78.6838 6.73098L77.7504 6.372L76.8171 6.01302C76.4564 6.95084 76.1835 7.67537 76 8.18308C75.9086 8.43581 75.8365 8.64278 75.7862 8.79875C75.7614 8.87573 75.7385 8.95059 75.7208 9.01734C75.7147 9.04017 75.6704 9.19357 75.6704 9.36H76.6704ZM77.7504 6.372L78.6828 6.73353C79.3616 4.983 79.932 3.71325 80.3942 2.89467C80.6277 2.48124 80.8097 2.22597 80.9372 2.08715C81.1065 1.90286 81.0307 2.08 80.7384 2.08V1.08V0.079999C80.1342 0.079999 79.6999 0.477635 79.4642 0.734344C79.1866 1.03653 78.9172 1.44276 78.6527 1.91133C78.1189 2.85675 77.5073 4.233 76.8181 6.01047L77.7504 6.372ZM80.7384 1.08V2.08C81.7527 2.08 83.287 2.3874 85.3966 3.0748L85.7064 2.124L86.0163 1.1732C83.8539 0.468598 82.0762 0.079999 80.7384 0.079999V1.08ZM85.7064 2.124L85.3969 3.07487C86.3139 3.37345 87.0807 3.8028 87.7137 4.35408L88.3704 3.6L89.0272 2.84592C88.1722 2.1012 87.163 1.54655 86.016 1.17313L85.7064 2.124ZM88.3704 3.6L87.7278 4.36619C88.3102 4.8546 88.4864 5.29101 88.4864 5.688H89.4864H90.4864C90.4864 4.54899 89.9187 3.5934 89.0131 2.83381L88.3704 3.6ZM89.4864 5.688H88.4864C88.4864 5.66288 88.4729 5.82698 88.2323 6.28472C88.0151 6.69784 87.6739 7.23975 87.1939 7.91876L88.0104 8.496L88.827 9.07324C89.331 8.36025 89.7278 7.73816 90.0026 7.21528C90.254 6.73702 90.4864 6.19312 90.4864 5.688H89.4864ZM88.0104 8.496L87.1919 7.92157C86.2591 9.2508 84.8191 11.0586 82.8581 13.3545L83.6184 14.004L84.3788 14.6535C86.3538 12.3414 87.8418 10.4772 88.829 9.07043L88.0104 8.496ZM83.6184 14.004L82.8934 14.6927C83.347 15.1702 83.9211 15.7801 84.6162 16.5232L85.3464 15.84L86.0767 15.1568C85.3798 14.4118 84.8019 13.7978 84.3434 13.3153L83.6184 14.004ZM85.3464 15.84L84.6162 16.5232C85.2801 17.2329 86.1817 18.3199 87.3277 19.8002L88.1184 19.188L88.9092 18.5758C87.7512 17.0801 86.8047 15.9351 86.0767 15.1568L85.3464 15.84ZM88.1184 19.188L87.3388 19.8143C87.9095 20.5247 88.3135 21.1041 88.5701 21.5597C88.6979 21.7866 88.7803 21.9673 88.8291 22.1057C88.8531 22.1739 88.867 22.2262 88.8746 22.264C88.8784 22.2826 88.8804 22.2965 88.8814 22.3061C88.8824 22.3157 88.8824 22.3201 88.8824 22.32H89.8824H90.8824C90.8824 21.7404 90.6266 21.1356 90.3127 20.5783C89.9813 19.9899 89.5034 19.3153 88.8981 18.5617L88.1184 19.188ZM89.8824 22.32H88.8824C88.8824 22.3274 88.8766 22.455 88.6673 22.7267C88.4622 22.9929 88.1177 23.3233 87.5932 23.714L88.1904 24.516L88.7877 25.318C89.3911 24.8687 89.8927 24.4131 90.2516 23.9473C90.6062 23.487 90.8824 22.9366 90.8824 22.32H89.8824ZM88.1904 24.516L87.6043 23.7058C86.5386 24.4767 85.4065 25.1105 84.2071 25.6084L84.5904 26.532L84.9738 27.4556C86.3184 26.8975 87.5863 26.1873 88.7766 25.3262L88.1904 24.516ZM84.5904 26.532L84.2221 25.6023C82.9608 26.1021 82.1658 26.288 81.7464 26.288V27.288V28.288C82.5751 28.288 83.6761 27.9699 84.9588 27.4617L84.5904 26.532ZM81.7464 27.288V26.288C81.895 26.288 81.9681 26.3422 81.944 26.327C81.9223 26.3134 81.8583 26.2658 81.7528 26.1513C81.541 25.9214 81.2618 25.5322 80.9164 24.945L80.0544 25.452L79.1925 25.959C79.5671 26.5958 79.9299 27.1245 80.2821 27.5067C80.4586 27.6982 80.657 27.8801 80.8784 28.0195C81.0973 28.1573 81.3939 28.288 81.7464 28.288V27.288ZM80.0544 25.452L80.9278 24.9649C80.2617 23.7706 79.4278 21.9551 78.4244 19.4944L77.4984 19.872L76.5725 20.2496C77.5851 22.7329 78.4552 24.6374 79.1811 25.9391L80.0544 25.452ZM77.4984 19.872L76.7319 19.2298L75.6159 20.5618L76.3824 21.204L77.149 21.8462L78.265 20.5142L77.4984 19.872ZM76.3824 21.204H75.3824V25.884H76.3824H77.3824V21.204H76.3824ZM92.4739 26.748L92.8546 25.8233L92.4739 26.748ZM92.6899 1.836L92.2732 0.926932L92.2658 0.930338L92.2584 0.933865L92.6899 1.836ZM110.654 7.776L111.624 8.01854L111.626 8.01235L110.654 7.776ZM101.906 8.604L101.99 7.60754L100.906 7.51603V8.604H101.906ZM101.906 11.016H100.906V12.0574L101.946 12.0152L101.906 11.016ZM109.43 16.524L108.481 16.2078L108.478 16.2167L108.475 16.2257L109.43 16.524ZM108.422 17.676L108.4 18.6758L108.411 18.676H108.422V17.676ZM101.906 17.532L101.928 16.5322L100.906 16.5097V17.532H101.906ZM101.906 19.836H100.906V20.9135L101.98 20.8332L101.906 19.836ZM110.114 27V26H94.8499V27V28H110.114V27ZM94.8499 27V26C94.2822 26 93.8281 25.9796 93.4793 25.9426C93.115 25.9039 92.9268 25.853 92.8546 25.8233L92.4739 26.748L92.0931 27.6727C92.429 27.811 92.8408 27.8861 93.2684 27.9314C93.7116 27.9784 94.2415 28 94.8499 28V27ZM92.4739 26.748L92.8546 25.8233C92.7619 25.7851 92.772 25.7683 92.8062 25.8126C92.8239 25.8354 92.84 25.8649 92.8506 25.8973C92.8609 25.9288 92.8619 25.9506 92.8619 25.956H91.8619H90.8619C90.8619 26.3387 90.9753 26.7142 91.2236 27.0354C91.4618 27.3437 91.7778 27.5429 92.0931 27.6727L92.4739 26.748ZM91.8619 25.956H92.8619V3.168H91.8619H90.8619V25.956H91.8619ZM91.8619 3.168H92.8619C92.8619 3.00613 92.8963 2.93011 92.9182 2.89493C92.9393 2.86097 92.9876 2.8021 93.1213 2.73813L92.6899 1.836L92.2584 0.933865C91.8402 1.1339 91.4745 1.42903 91.2196 1.83906C90.9655 2.24789 90.8619 2.70587 90.8619 3.168H91.8619ZM92.6899 1.836L93.1065 2.74506C93.4661 2.58026 94.289 2.44 95.7499 2.44V1.44V0.439999C94.2827 0.439999 93.0656 0.56374 92.2732 0.926932L92.6899 1.836ZM95.7499 1.44V2.44H110.222V1.44V0.439999H95.7499V1.44ZM110.222 1.44V2.44C110.028 2.44 109.879 2.34381 109.809 2.26646C109.765 2.21776 109.789 2.21854 109.831 2.35735C109.914 2.63402 109.978 3.14554 109.978 3.96H110.978H111.978C111.978 3.09446 111.916 2.34597 111.747 1.78265C111.662 1.50146 111.529 1.18724 111.296 0.928534C111.037 0.641191 110.667 0.439999 110.222 0.439999V1.44ZM110.978 3.96H109.978C109.978 5.58953 109.87 6.76765 109.682 7.53965L110.654 7.776L111.626 8.01235C111.87 7.00835 111.978 5.64247 111.978 3.96H110.978ZM110.654 7.776L109.684 7.53346C109.637 7.71941 109.591 7.86675 109.546 7.98055C109.501 8.09622 109.465 8.16193 109.444 8.1933C109.422 8.22607 109.433 8.19819 109.492 8.15895C109.561 8.11279 109.666 8.072 109.79 8.072V9.072V10.072C110.437 10.072 110.867 9.66457 111.108 9.3027C111.345 8.94676 111.505 8.49401 111.624 8.01853L110.654 7.776ZM109.79 9.072V8.072C108.276 8.072 105.686 7.9195 101.99 7.60754L101.906 8.604L101.822 9.60045C105.518 9.91249 108.184 10.072 109.79 10.072V9.072ZM101.906 8.604H100.906V11.016H101.906H102.906V8.604H101.906ZM101.906 11.016L101.946 12.0152C105.503 11.871 107.798 11.8 108.854 11.8V10.8V9.8C107.75 9.8 105.413 9.87301 101.865 10.0168L101.906 11.016ZM108.854 10.8V11.8C108.806 11.8 108.729 11.7806 108.665 11.7311C108.616 11.6926 108.628 11.6771 108.664 11.7609C108.745 11.9499 108.826 12.3529 108.826 13.068H109.826H110.826C110.826 12.2711 110.745 11.5401 110.502 10.9731C110.376 10.6789 110.186 10.3798 109.893 10.1524C109.586 9.91388 109.226 9.8 108.854 9.8V10.8ZM109.826 13.068H108.826C108.826 14.5448 108.694 15.569 108.481 16.2078L109.43 16.524L110.379 16.8402C110.694 15.895 110.826 14.6152 110.826 13.068H109.826ZM109.43 16.524L108.475 16.2257C108.376 16.5452 108.284 16.6852 108.245 16.7295C108.231 16.7458 108.241 16.7295 108.281 16.7096C108.324 16.6877 108.376 16.676 108.422 16.676V17.676V18.676C108.979 18.676 109.43 18.4123 109.75 18.0465C110.048 17.7068 110.244 17.2708 110.384 16.8223L109.43 16.524ZM108.422 17.676L108.444 16.6762L101.928 16.5322L101.906 17.532L101.884 18.5318L108.4 18.6758L108.422 17.676ZM101.906 17.532H100.906V19.836H101.906H102.906V17.532H101.906ZM101.906 19.836L101.98 20.8332C106.159 20.521 109.004 20.368 110.546 20.368V19.368V18.368C108.92 18.368 106.005 18.527 101.831 18.8388L101.906 19.836ZM110.546 19.368V20.368C110.352 20.368 110.203 20.2718 110.133 20.1945C110.089 20.1458 110.113 20.1465 110.155 20.2853C110.238 20.562 110.302 21.0735 110.302 21.888H111.302H112.302C112.302 21.0225 112.24 20.274 112.071 19.7107C111.986 19.4295 111.853 19.1152 111.62 18.8565C111.361 18.5692 110.991 18.368 110.546 18.368V19.368ZM111.302 21.888H110.302C110.302 23.5448 110.193 24.7185 110.008 25.4615L110.978 25.704L111.948 25.9465C112.194 24.9615 112.302 23.5912 112.302 21.888H111.302ZM110.978 25.704L110.008 25.4615C109.961 25.6474 109.915 25.7948 109.87 25.9086C109.825 26.0242 109.789 26.0899 109.768 26.1213C109.746 26.1541 109.757 26.1262 109.816 26.0869C109.885 26.0408 109.99 26 110.114 26V27V28C110.761 28 111.191 27.5926 111.432 27.2307C111.669 26.8748 111.829 26.422 111.948 25.9465L110.978 25.704ZM127.731 26.712L127.861 27.7035L127.731 26.712ZM120.531 26.784L120.168 27.716L120.191 27.7249L120.214 27.7327L120.531 26.784ZM119.883 19.692H120.883V19.4606L120.781 19.2528L119.883 19.692ZM115.167 2.268L115.491 3.21382L115.167 2.268ZM123.879 3.456L124.874 3.35613L124.873 3.34947L123.879 3.456ZM124.851 13.14L123.856 13.2399L123.946 14.14H124.851V13.14ZM125.247 13.14V14.14H126.177L126.244 13.2123L125.247 13.14ZM125.931 3.708L126.928 3.78033L126.928 3.77925L125.931 3.708ZM128.487 2.088L128.726 3.05905L128.739 3.05562L128.487 2.088ZM129.927 19.692L129.02 19.2701L128.927 19.4707V19.692H129.927ZM129.927 25.956H128.927C128.927 25.5964 129.147 25.411 129.179 25.3866C129.212 25.3611 129.192 25.3853 129.052 25.4335C128.783 25.526 128.314 25.6269 127.601 25.7205L127.731 26.712L127.861 27.7035C128.611 27.6051 129.24 27.484 129.703 27.3245C129.929 27.2467 130.183 27.1374 130.4 26.9709C130.614 26.8055 130.927 26.4716 130.927 25.956H129.927ZM127.731 26.712L127.601 25.7205C126.179 25.9069 124.759 26 123.339 26V27V28C124.846 28 126.354 27.9011 127.861 27.7035L127.731 26.712ZM123.339 27V26C122.632 26 122.066 25.9822 121.633 25.9489C121.18 25.9141 120.94 25.8665 120.847 25.8353L120.531 26.784L120.214 27.7327C120.553 27.8455 120.997 27.9059 121.48 27.9431C121.983 27.9818 122.605 28 123.339 28V27ZM120.531 26.784L120.893 25.852C120.792 25.8127 120.799 25.7926 120.832 25.8347C120.849 25.8563 120.864 25.8837 120.873 25.9127C120.883 25.9407 120.883 25.9575 120.883 25.956H119.883H118.883C118.883 26.3487 118.998 26.7363 119.257 27.0673C119.506 27.3854 119.837 27.5873 120.168 27.716L120.531 26.784ZM119.883 25.956H120.883V19.692H119.883H118.883V25.956H119.883ZM119.883 19.692L120.781 19.2528C118.406 14.3957 116.63 10.657 115.448 8.03164C114.857 6.71755 114.42 5.69348 114.132 4.95258C113.988 4.58115 113.887 4.29384 113.823 4.08373C113.748 3.83803 113.755 3.79218 113.755 3.852H112.755H111.755C111.755 4.12182 111.836 4.42472 111.909 4.66652C111.994 4.94391 112.115 5.28285 112.268 5.67642C112.574 6.46552 113.028 7.52645 113.625 8.85236C114.819 11.507 116.607 15.2683 118.984 20.1312L119.883 19.692ZM112.755 3.852H113.755C113.755 4.14958 113.543 4.15266 113.906 3.91387C114.205 3.71791 114.716 3.48001 115.491 3.21382L115.167 2.268L114.842 1.32218C114.009 1.60798 113.314 1.91009 112.809 2.24213C112.368 2.53134 111.755 3.05042 111.755 3.852H112.755ZM115.167 2.268L115.491 3.21382C116.99 2.69927 118.572 2.44 120.243 2.44V1.44V0.439999C118.361 0.439999 116.559 0.732724 114.842 1.32218L115.167 2.268ZM120.243 1.44V2.44C121.31 2.44 121.986 2.60176 122.377 2.81856C122.707 3.00147 122.848 3.2238 122.884 3.56253L123.879 3.456L124.873 3.34947C124.765 2.34419 124.229 1.55853 123.346 1.06943C122.525 0.614234 121.455 0.439999 120.243 0.439999V1.44ZM123.879 3.456L122.884 3.55587L123.856 13.2399L124.851 13.14L125.846 13.0401L124.874 3.35613L123.879 3.456ZM124.851 13.14V14.14H125.247V13.14V12.14H124.851V13.14ZM125.247 13.14L126.244 13.2123L126.928 3.78033L125.931 3.708L124.933 3.63567L124.249 13.0677L125.247 13.14ZM125.931 3.708L126.928 3.77925C126.92 3.89389 126.844 3.83162 127.141 3.64364C127.434 3.45784 127.941 3.25238 128.726 3.05896L128.487 2.088L128.247 1.11703C127.376 1.33162 126.629 1.60016 126.07 1.95436C125.515 2.30638 124.989 2.85011 124.933 3.63675L125.931 3.708ZM128.487 2.088L128.739 3.05562C130.325 2.64197 131.811 2.44 133.203 2.44V1.44V0.439999C131.618 0.439999 129.96 0.670027 128.234 1.12038L128.487 2.088ZM133.203 1.44V2.44C134.664 2.44 135.403 2.66611 135.699 2.888L136.299 2.088L136.899 1.288C136.042 0.64589 134.717 0.439999 133.203 0.439999V1.44ZM136.299 2.088L135.699 2.888C136.153 3.22902 136.163 3.42429 136.163 3.456H137.163H138.163C138.163 2.52771 137.596 1.81098 136.899 1.288L136.299 2.088ZM137.163 3.456H136.163C136.163 3.33191 136.191 3.25984 136.171 3.32965C136.161 3.3658 136.141 3.42846 136.107 3.52414C136.04 3.71366 135.934 3.98583 135.785 4.34707C135.489 5.06691 135.042 6.09962 134.44 7.44992C133.238 10.1483 131.431 14.0874 129.02 19.2701L129.927 19.692L130.833 20.1139C133.246 14.9286 135.058 10.9777 136.267 8.26408C136.871 6.90838 137.328 5.85458 137.635 5.10743C137.788 4.73516 137.908 4.42871 137.992 4.19448C138.033 4.07829 138.07 3.96779 138.097 3.8695C138.115 3.80488 138.163 3.63709 138.163 3.456H137.163ZM129.927 19.692H128.927V25.956H129.927H130.927V19.692H129.927ZM139.583 26.748L139.964 25.8233L139.583 26.748ZM157.619 2.232L158.078 1.34318L158.072 1.34042L157.619 2.232ZM160.571 5.256L161.52 4.93977L161.517 4.93145L161.514 4.92318L160.571 5.256ZM159.959 11.988L159.137 11.4188L159.132 11.426L159.127 11.4333L159.959 11.988ZM157.907 13.572L157.748 12.5848L157.699 14.5501L157.907 13.572ZM160.715 15.228L161.473 14.5755V14.5755L160.715 15.228ZM159.635 24.948L159.017 24.1621L159.014 24.1643L159.635 24.948ZM153.803 26.856L153.89 27.8523L153.904 27.8509L153.803 26.856ZM151.247 7.056L150.453 7.66345L150.473 7.68967L150.495 7.7145L151.247 7.056ZM149.015 6.444V5.444H148.015V6.444H149.015ZM149.015 11.304H148.015V12.304H149.015V11.304ZM149.015 21.636H148.015V22.636H149.015V21.636ZM151.247 17.388L150.453 17.9954L150.473 18.0217L150.495 18.0465L151.247 17.388ZM149.015 16.776V15.776H148.015V16.776H149.015ZM149.879 27V26H141.995V27V28H149.879V27ZM141.995 27V26C141.415 26 140.951 25.9795 140.596 25.9424C140.224 25.9036 140.035 25.8524 139.964 25.8233L139.583 26.748L139.202 27.6727C139.54 27.8116 139.956 27.8864 140.388 27.9316C140.837 27.9785 141.375 28 141.995 28V27ZM139.583 26.748L139.964 25.8233C139.871 25.7851 139.881 25.7683 139.916 25.8126C139.933 25.8354 139.949 25.8649 139.96 25.8973C139.97 25.9288 139.971 25.9506 139.971 25.956H138.971H137.971C137.971 26.3387 138.085 26.7142 138.333 27.0354C138.571 27.3437 138.887 27.5429 139.202 27.6727L139.583 26.748ZM138.971 25.956H139.971V2.808H138.971H137.971V25.956H138.971ZM138.971 2.808H139.971C139.971 3.11222 139.728 3.11633 140.067 2.94704C140.367 2.79768 140.901 2.63716 141.736 2.49848C143.386 2.22443 145.92 2.08 149.375 2.08V1.08V0.079999C145.894 0.079999 143.226 0.223572 141.408 0.525513C140.509 0.674837 139.743 0.87432 139.176 1.15695C138.648 1.41966 137.971 1.92777 137.971 2.808H138.971ZM149.375 1.08V2.08C153.36 2.08 155.888 2.47448 157.166 3.12358L157.619 2.232L158.072 1.34042C156.326 0.453519 153.359 0.079999 149.375 0.079999V1.08ZM157.619 2.232L157.161 3.1208C158.547 3.83566 159.306 4.6759 159.628 5.58882L160.571 5.256L161.514 4.92318C160.972 3.3881 159.763 2.21234 158.078 1.3432L157.619 2.232ZM160.571 5.256L159.623 5.57223C159.821 6.16736 159.931 6.89635 159.931 7.776H160.931H161.931C161.931 6.73565 161.802 5.78463 161.52 4.93977L160.571 5.256ZM160.931 7.776H159.931C159.931 9.56352 159.616 10.7266 159.137 11.4188L159.959 11.988L160.781 12.5572C161.598 11.3774 161.931 9.73248 161.931 7.776H160.931ZM159.959 11.988L159.127 11.4333C158.581 12.2521 158.106 12.527 157.748 12.5848L157.907 13.572L158.066 14.5592C159.196 14.377 160.089 13.5959 160.791 12.5427L159.959 11.988ZM157.907 13.572L157.699 14.5501C158.616 14.7452 159.358 15.1843 159.957 15.8805L160.715 15.228L161.473 14.5755C160.585 13.5437 159.455 12.8788 158.115 12.5939L157.907 13.572ZM160.715 15.228L159.957 15.8805C160.461 16.4648 160.831 17.6224 160.831 19.62H161.831H162.831C162.831 17.4896 162.458 15.7192 161.473 14.5755L160.715 15.228ZM161.831 19.62H160.831C160.831 21.8096 160.173 23.2522 159.017 24.1621L159.635 24.948L160.254 25.7339C162.025 24.3398 162.831 22.2304 162.831 19.62H161.831ZM159.635 24.948L159.014 24.1643C157.958 25.001 156.235 25.6055 153.703 25.8611L153.803 26.856L153.904 27.8509C156.603 27.5785 158.768 26.911 160.256 25.7317L159.635 24.948ZM153.803 26.856L153.717 25.8598C152.65 25.9525 151.372 26 149.879 26V27V28C151.411 28 152.749 27.9515 153.89 27.8522L153.803 26.856ZM149.915 11.304V12.304C150.771 12.304 151.559 12.0035 152.092 11.292C152.585 10.6346 152.751 9.76816 152.751 8.856H151.751H150.751C150.751 9.57584 150.611 9.9334 150.492 10.092C150.414 10.1965 150.283 10.304 149.915 10.304V11.304ZM151.751 8.856H152.751C152.751 7.93484 152.567 7.04565 152 6.39749L151.247 7.056L150.495 7.7145C150.6 7.83435 150.751 8.14516 150.751 8.856H151.751ZM151.247 7.056L152.042 6.44855C151.594 5.86376 150.966 5.444 150.167 5.444V6.444V7.444C150.184 7.444 150.276 7.43224 150.453 7.66345L151.247 7.056ZM150.167 6.444V5.444H149.015V6.444V7.444H150.167V6.444ZM149.015 6.444H148.015V11.304H149.015H150.015V6.444H149.015ZM149.015 11.304V12.304H149.915V11.304V10.304H149.015V11.304ZM149.015 21.636V22.636H149.915V21.636V20.636H149.015V21.636ZM149.915 21.636V22.636C150.771 22.636 151.559 22.3355 152.092 21.624C152.585 20.9666 152.751 20.1002 152.751 19.188H151.751H150.751C150.751 19.9078 150.611 20.2654 150.492 20.424C150.414 20.5285 150.283 20.636 149.915 20.636V21.636ZM151.751 19.188H152.751C152.751 18.2668 152.567 17.3776 152 16.7295L151.247 17.388L150.495 18.0465C150.6 18.1663 150.751 18.4772 150.751 19.188H151.751ZM151.247 17.388L152.042 16.7806C151.594 16.1958 150.966 15.776 150.167 15.776V16.776V17.776C150.184 17.776 150.276 17.7642 150.453 17.9954L151.247 17.388ZM150.167 16.776V15.776H149.015V16.776V17.776H150.167V16.776ZM149.015 16.776H148.015V21.636H149.015H150.015V16.776H149.015ZM171.374 26.784L171.112 27.7491L171.122 27.7517L171.132 27.7541L171.374 26.784ZM167.45 24.768L168.075 23.9871L168.066 23.9803L167.45 24.768ZM164.786 7.956L163.858 7.58458L163.853 7.59613L164.786 7.956ZM167.558 3.96L166.918 3.19178L166.916 3.19306L167.558 3.96ZM181.454 1.584L181.219 2.55609L181.223 2.55698L181.454 1.584ZM185.45 3.42L186.036 2.6099L186.03 2.60521L185.45 3.42ZM185.81 24.048L186.502 24.7701L185.81 24.048ZM175.334 21.168L174.553 21.7927L174.564 21.8059L174.575 21.8188L175.334 21.168ZM177.71 21.168L178.469 21.8188L178.48 21.8059L178.491 21.7927L177.71 21.168ZM178.43 18.936L179.416 19.1038L179.416 19.1004L178.43 18.936ZM178.43 9.432L179.415 9.26066V9.26066L178.43 9.432ZM175.334 7.272L176.093 7.92279V7.92279L175.334 7.272ZM174.614 9.432L175.599 9.60334L174.614 9.432ZM174.614 18.936L173.628 19.1004L173.628 19.1038L174.614 18.936ZM176.522 27.324V26.324C174.586 26.324 172.956 26.1486 171.617 25.8139L171.374 26.784L171.132 27.7541C172.673 28.1394 174.474 28.324 176.522 28.324V27.324ZM171.374 26.784L171.636 25.8189C170.358 25.4724 169.173 24.8656 168.075 23.9871L167.45 24.768L166.825 25.5489C168.127 26.5904 169.558 27.3276 171.112 27.7491L171.374 26.784ZM167.45 24.768L168.066 23.9803C166.017 22.3777 164.814 19.1496 164.814 13.86H163.814H162.814C162.814 19.3224 164.035 23.3663 166.834 25.5557L167.45 24.768ZM163.814 13.86H164.814C164.814 11.6971 165.125 9.8561 165.719 8.31587L164.786 7.956L163.853 7.59613C163.151 9.4159 162.814 11.5109 162.814 13.86H163.814ZM164.786 7.956L165.715 8.32739C166.336 6.77327 167.172 5.58723 168.2 4.72694L167.558 3.96L166.916 3.19306C165.592 4.30077 164.58 5.77873 163.858 7.58461L164.786 7.956ZM167.558 3.96L168.198 4.72822C170.285 2.98944 173.03 2.08 176.522 2.08V1.08V0.079999C172.67 0.079999 169.439 1.09056 166.918 3.19178L167.558 3.96ZM176.522 1.08V2.08C178.363 2.08 179.924 2.24349 181.219 2.55608L181.454 1.584L181.689 0.611917C180.2 0.252508 178.473 0.079999 176.522 0.079999V1.08ZM181.454 1.584L181.223 2.55698C182.507 2.86168 183.722 3.41753 184.87 4.23479L185.45 3.42L186.03 2.60521C184.682 1.64647 183.233 0.978316 181.685 0.611016L181.454 1.584ZM185.45 3.42L184.864 4.23007C186.991 5.77014 188.23 8.83567 188.23 13.86H189.23H190.23C190.23 8.61232 188.949 4.71785 186.036 2.60993L185.45 3.42ZM189.23 13.86H188.23C188.23 18.3213 187.126 21.4028 185.118 23.3259L185.81 24.048L186.502 24.7701C189.054 22.3252 190.23 18.6147 190.23 13.86H189.23ZM185.81 24.048L185.118 23.3259C183.067 25.2912 180.241 26.324 176.522 26.324V27.324V28.324C180.627 28.324 183.994 27.1728 186.502 24.7701L185.81 24.048ZM175.334 21.168L174.575 21.8188C175.08 22.4086 175.771 22.672 176.522 22.672V21.672V20.672C176.265 20.672 176.164 20.5994 176.093 20.5172L175.334 21.168ZM176.522 21.672V22.672C177.273 22.672 177.964 22.4086 178.469 21.8188L177.71 21.168L176.951 20.5172C176.88 20.5994 176.779 20.672 176.522 20.672V21.672ZM177.71 21.168L178.491 21.7927C178.746 21.4744 178.923 21.0655 179.058 20.647C179.197 20.2139 179.315 19.6955 179.416 19.1038L178.43 18.936L177.444 18.7682C177.353 19.3045 177.255 19.7221 177.154 20.033C177.049 20.3585 176.963 20.5016 176.929 20.5433L177.71 21.168ZM178.43 18.936L179.416 19.1004C179.622 17.8684 179.718 16.2089 179.718 14.148H178.718H177.718C177.718 16.1671 177.622 17.6996 177.444 18.7716L178.43 18.936ZM178.718 14.148H179.718C179.718 12.089 179.622 10.4495 179.415 9.26066L178.43 9.432L177.445 9.60334C177.622 10.6225 177.718 12.127 177.718 14.148H178.718ZM178.43 9.432L179.415 9.26066C179.314 8.68033 179.196 8.17161 179.055 7.74777C178.919 7.34019 178.737 6.93358 178.469 6.62121L177.71 7.272L176.951 7.92279C176.971 7.94642 177.053 8.06781 177.157 8.38023C177.256 8.67639 177.354 9.07967 177.445 9.60334L178.43 9.432ZM177.71 7.272L178.469 6.62121C177.964 6.03138 177.273 5.768 176.522 5.768V6.768V7.768C176.779 7.768 176.88 7.84062 176.951 7.92279L177.71 7.272ZM176.522 6.768V5.768C175.771 5.768 175.08 6.03138 174.575 6.62121L175.334 7.272L176.093 7.92279C176.164 7.84062 176.265 7.768 176.522 7.768V6.768ZM175.334 7.272L174.575 6.62121C174.307 6.93358 174.125 7.34019 173.989 7.74777C173.848 8.17161 173.73 8.68033 173.629 9.26066L174.614 9.432L175.599 9.60334C175.69 9.07967 175.788 8.67639 175.887 8.38023C175.991 8.06781 176.073 7.94642 176.093 7.92279L175.334 7.272ZM174.614 9.432L173.629 9.26066C173.422 10.4495 173.326 12.089 173.326 14.148H174.326H175.326C175.326 12.127 175.422 10.6225 175.599 9.60334L174.614 9.432ZM174.326 14.148H173.326C173.326 16.2089 173.422 17.8684 173.628 19.1004L174.614 18.936L175.6 18.7716C175.422 17.6996 175.326 16.1671 175.326 14.148H174.326ZM174.614 18.936L173.628 19.1038C173.729 19.6955 173.847 20.2139 173.986 20.647C174.121 21.0655 174.299 21.4744 174.553 21.7927L175.334 21.168L176.115 20.5433C176.082 20.5016 175.995 20.3585 175.89 20.033C175.789 19.7221 175.691 19.3045 175.6 18.7682L174.614 18.936ZM200.06 25.164L199.064 25.0751L199.063 25.0851L199.062 25.0952L200.06 25.164ZM198.944 26.604L198.589 25.6689L198.578 25.6732L198.944 26.604ZM190.808 26.532L190.533 27.4935L190.544 27.4968L190.556 27.4998L190.808 26.532ZM192.248 14.256L193.201 14.557L193.202 14.556L192.248 14.256ZM195.92 2.52L194.986 2.16102L194.973 2.19538L194.962 2.23061L195.92 2.52ZM198.8 1.764L198.906 2.75842L198.917 2.75706L198.8 1.764ZM208.088 2.52L207.13 2.80735L207.13 2.80819L208.088 2.52ZM214.46 26.208L215.077 26.9943L215.089 26.9854L215.1 26.9762L214.46 26.208ZM203.948 25.488L204.943 25.3932L204.942 25.3809L203.948 25.488ZM203.696 23.148L204.69 23.0409L204.594 22.148H203.696V23.148ZM200.24 23.148V22.148H199.325L199.244 23.0591L200.24 23.148ZM202.94 16.308V17.308H204.026L203.936 16.225L202.94 16.308ZM202.4 9.828L203.396 9.74495L203.32 8.828H202.4V9.828ZM201.608 9.828V8.828H200.698L200.612 9.73397L201.608 9.828ZM200.996 16.308L200 16.214L199.897 17.308H200.996V16.308ZM200.06 25.164L199.062 25.0952C199.05 25.2757 199.001 25.3725 198.954 25.4334C198.904 25.4982 198.804 25.5876 198.589 25.669L198.944 26.604L199.298 27.539C199.78 27.3564 200.213 27.0738 200.535 26.6586C200.86 26.2395 201.022 25.7483 201.057 25.2328L200.06 25.164ZM198.944 26.604L198.578 25.6732C198.102 25.8603 197.053 26 195.272 26V27V28C197.042 28 198.441 27.8757 199.309 27.5348L198.944 26.604ZM195.272 27V26C193.547 26 192.15 25.8478 191.059 25.5642L190.808 26.532L190.556 27.4998C191.865 27.8402 193.444 28 195.272 28V27ZM190.808 26.532L191.082 25.5705C190.539 25.4153 190.224 25.2644 190.066 25.1513C189.913 25.0423 190.044 25.0763 190.044 25.272H189.044H188.044C188.044 25.9717 188.468 26.4677 188.903 26.7787C189.333 27.0856 189.9 27.3127 190.533 27.4935L190.808 26.532ZM189.044 25.272H190.044C190.044 25.3079 190.041 25.2733 190.075 25.1049C190.103 24.9596 190.149 24.7607 190.214 24.5033C190.343 23.9898 190.539 23.2788 190.805 22.3653C191.336 20.5402 192.134 17.9387 193.201 14.557L192.248 14.256L191.294 13.955C190.225 17.3413 189.422 19.9598 188.884 21.8067C188.616 22.7292 188.412 23.4672 188.274 24.0157C188.205 24.2893 188.151 24.5247 188.113 24.7169C188.079 24.886 188.044 25.0921 188.044 25.272H189.044ZM192.248 14.256L193.202 14.556C195.336 7.76759 196.563 3.84823 196.877 2.80939L195.92 2.52L194.962 2.23061C194.652 3.25577 193.431 7.16041 191.294 13.956L192.248 14.256ZM195.92 2.52L196.853 2.87898C196.748 3.1526 196.552 3.22414 196.63 3.18366C196.67 3.16259 196.777 3.11849 196.983 3.06423C197.391 2.95734 198.022 2.85261 198.906 2.75836L198.8 1.764L198.694 0.76964C197.777 0.867389 197.029 0.984655 196.476 1.12977C196.202 1.2015 195.934 1.2909 195.704 1.41084C195.512 1.51136 195.151 1.7314 194.986 2.16102L195.92 2.52ZM198.8 1.764L198.917 2.75706C200.698 2.54621 202.602 2.44 204.632 2.44V1.44V0.439999C202.533 0.439999 200.549 0.549791 198.682 0.770938L198.8 1.764ZM204.632 1.44V2.44C205.637 2.44 206.329 2.52886 206.763 2.66448C207.219 2.80698 207.164 2.9221 207.13 2.80735L208.088 2.52L209.045 2.23265C208.795 1.3979 208.056 0.973022 207.36 0.755519C206.642 0.531136 205.714 0.439999 204.632 0.439999V1.44ZM208.088 2.52L207.13 2.80819C209.398 10.3439 211.098 16.0242 212.232 19.85C212.799 21.7634 213.223 23.2107 213.505 24.1936C213.647 24.6857 213.751 25.0575 213.82 25.3117C213.855 25.4397 213.879 25.5318 213.893 25.5922C213.901 25.6231 213.904 25.6379 213.905 25.6413C213.912 25.6798 213.892 25.5968 213.892 25.488H214.892H215.892C215.892 25.3642 215.866 25.2517 215.865 25.2463C215.857 25.2057 215.847 25.162 215.837 25.12C215.816 25.0345 215.787 24.9228 215.751 24.789C215.678 24.5198 215.57 24.1363 215.427 23.6414C215.143 22.6503 214.717 21.1966 214.149 19.282C213.015 15.4518 211.313 9.76814 209.045 2.23181L208.088 2.52ZM214.892 25.488H213.892C213.892 25.4465 213.898 25.4097 213.907 25.3807C213.915 25.3524 213.924 25.3366 213.926 25.3335C213.928 25.3308 213.923 25.3396 213.905 25.359C213.888 25.3784 213.86 25.4056 213.819 25.4398L214.46 26.208L215.1 26.9762C215.488 26.6531 215.892 26.1588 215.892 25.488H214.892ZM214.46 26.208L213.842 25.4217C213.682 25.5475 213.355 25.7035 212.762 25.8211C212.182 25.936 211.422 26 210.464 26V27V28C211.498 28 212.399 27.932 213.151 27.7829C213.89 27.6365 214.566 27.3965 215.077 26.9943L214.46 26.208ZM210.464 27V26C208.36 26 206.847 25.8736 205.875 25.6479C205.384 25.534 205.103 25.4107 204.964 25.3175C204.838 25.2338 204.929 25.2504 204.943 25.3932L203.948 25.488L202.952 25.5828C203.014 26.2296 203.413 26.6872 203.854 26.9816C204.281 27.2663 204.827 27.458 205.423 27.5961C206.622 27.8744 208.319 28 210.464 28V27ZM203.948 25.488L204.942 25.3809L204.69 23.0409L203.696 23.148L202.701 23.2551L202.953 25.5951L203.948 25.488ZM203.696 23.148V22.148H200.24V23.148V24.148H203.696V23.148ZM200.24 23.148L199.244 23.0591L199.064 25.0751L200.06 25.164L201.056 25.2529L201.236 23.2369L200.24 23.148ZM202.94 16.308L203.936 16.225L203.396 9.74495L202.4 9.828L201.403 9.91105L201.943 16.391L202.94 16.308ZM202.4 9.828V8.828H201.608V9.828V10.828H202.4V9.828ZM201.608 9.828L200.612 9.73397L200 16.214L200.996 16.308L201.991 16.402L202.603 9.92203L201.608 9.828ZM200.996 16.308V17.308H202.94V16.308V15.308H200.996V16.308ZM224.586 26.712L224.456 25.7205L224.586 26.712ZM217.314 26.748L216.933 27.6727L216.942 27.6764L216.951 27.68L217.314 26.748ZM219.042 1.476L218.877 0.489601L218.875 0.490017L219.042 1.476ZM229.662 1.116L229.627 2.1154L229.644 2.116H229.662V1.116ZM232.182 1.224L232.107 2.2212V2.2212L232.182 1.224ZM234.45 1.584L234.159 2.54074L234.17 2.544L234.45 1.584ZM236.322 2.232L235.956 3.16282L235.967 3.167L236.322 2.232ZM237.942 3.276L237.194 3.94036L237.204 3.951L237.214 3.96136L237.942 3.276ZM239.058 4.752L238.21 5.282L238.211 5.28377L239.058 4.752ZM239.058 14.004L238.16 13.5633L238.157 13.5702L239.058 14.004ZM236.538 16.956L236.001 16.1123L235.158 16.6488L235.694 17.4923L236.538 16.956ZM230.742 26.82L230.52 27.7951L230.742 26.82ZM229.734 26.028L228.78 26.3289L228.785 26.345L228.791 26.3608L229.734 26.028ZM227.394 18.612L228.347 18.3111L228.14 17.6542L227.452 17.6137L227.394 18.612ZM226.782 18.576L226.84 17.5777L225.782 17.5154V18.576H226.782ZM226.782 13.032H225.782V14.032H226.782V13.032ZM229.23 7.452L228.445 8.07164L228.455 8.08405L228.465 8.09613L229.23 7.452ZM226.782 6.768V5.768H225.782V6.768H226.782ZM226.782 25.956H225.782C225.782 25.5964 226.002 25.411 226.034 25.3866C226.067 25.3611 226.047 25.3853 225.907 25.4335C225.638 25.526 225.169 25.6269 224.456 25.7205L224.586 26.712L224.716 27.7035C225.466 27.6051 226.095 27.484 226.558 27.3245C226.784 27.2467 227.039 27.1374 227.255 26.9709C227.469 26.8055 227.782 26.4716 227.782 25.956H226.782ZM224.586 26.712L224.456 25.7205C223.035 25.9068 221.603 26 220.158 26V27V28C221.689 28 223.208 27.9012 224.716 27.7035L224.586 26.712ZM220.158 27V26C219.441 26 218.87 25.9793 218.437 25.9409C217.98 25.9004 217.753 25.846 217.676 25.816L217.314 26.748L216.951 27.68C217.306 27.818 217.77 27.8896 218.26 27.9331C218.775 27.9787 219.41 28 220.158 28V27ZM217.314 26.748L217.694 25.8233C217.602 25.7851 217.612 25.7683 217.646 25.8126C217.664 25.8354 217.68 25.8649 217.69 25.8973C217.701 25.9288 217.702 25.9506 217.702 25.956H216.702H215.702C215.702 26.3387 215.815 26.7142 216.063 27.0354C216.302 27.3437 216.618 27.5429 216.933 27.6727L217.314 26.748ZM216.702 25.956H217.702V2.808H216.702H215.702V25.956H216.702ZM216.702 2.808H217.702C217.702 3.00141 217.552 3.00667 217.781 2.87606C218.02 2.74004 218.47 2.587 219.209 2.46198L219.042 1.476L218.875 0.490017C218.054 0.628995 217.333 0.829956 216.792 1.13793C216.241 1.45133 215.702 1.99059 215.702 2.808H216.702ZM219.042 1.476L219.206 2.46239C220.716 2.2107 222.649 2.08 225.018 2.08V1.08V0.079999C222.587 0.079999 220.535 0.213299 218.877 0.489604L219.042 1.476ZM225.018 1.08V2.08C227.422 2.08 228.952 2.09212 229.627 2.1154L229.662 1.116L229.696 0.116592C228.98 0.0918808 227.413 0.079999 225.018 0.079999V1.08ZM229.662 1.116V2.116C230.35 2.116 231.164 2.15049 232.107 2.2212L232.182 1.224L232.257 0.2268C231.279 0.153511 230.413 0.115998 229.662 0.115998V1.116ZM232.182 1.224L232.107 2.2212C233.035 2.29082 233.708 2.40358 234.159 2.54067L234.45 1.584L234.741 0.627325C234.087 0.42842 233.248 0.301173 232.257 0.2268L232.182 1.224ZM234.45 1.584L234.17 2.544C234.712 2.70206 235.307 2.90765 235.956 3.16275L236.322 2.232L236.687 1.30125C235.993 1.02834 235.34 0.80194 234.73 0.623999L234.45 1.584ZM236.322 2.232L235.967 3.167C236.554 3.38977 236.944 3.65863 237.194 3.94036L237.942 3.276L238.689 2.61163C238.172 2.02937 237.481 1.60223 236.676 1.297L236.322 2.232ZM237.942 3.276L237.214 3.96136C237.544 4.31284 237.877 4.75032 238.21 5.282L239.058 4.752L239.906 4.222C239.518 3.60167 239.107 3.05516 238.67 2.59064L237.942 3.276ZM239.058 4.752L238.211 5.28377C238.717 6.08941 239.03 7.34908 239.03 9.18H240.03H241.03C241.03 7.17091 240.695 5.47859 239.905 4.22023L239.058 4.752ZM240.03 9.18H239.03C239.03 10.9659 238.724 12.4142 238.16 13.5633L239.058 14.004L239.955 14.4447C240.687 12.9538 241.03 11.1861 241.03 9.18H240.03ZM239.058 14.004L238.157 13.5702C237.601 14.7239 236.877 15.5546 236.001 16.1123L236.538 16.956L237.075 17.7997C238.31 17.0134 239.266 15.8761 239.959 14.4378L239.058 14.004ZM236.538 16.956L235.694 17.4923C237.066 19.6517 238.08 21.3951 238.748 22.7312C239.082 23.3996 239.322 23.9496 239.475 24.3879C239.635 24.8425 239.678 25.1099 239.678 25.236H240.678H241.678C241.678 24.7741 241.548 24.2555 241.363 23.7261C241.171 23.1804 240.893 22.5484 240.537 21.8368C239.825 20.4129 238.77 18.6043 237.382 16.4197L236.538 16.956ZM240.678 25.236H239.678C239.678 25.1349 239.75 25.1214 239.636 25.2063C239.495 25.3121 239.199 25.4554 238.663 25.5886C237.603 25.8523 235.929 26 233.586 26V27V28C235.97 28 237.842 27.8537 239.146 27.5294C239.793 27.3686 240.383 27.1444 240.833 26.8092C241.31 26.4531 241.678 25.9251 241.678 25.236H240.678ZM233.586 27V26C232.213 26 231.369 25.937 230.963 25.8449L230.742 26.82L230.52 27.7951C231.171 27.943 232.222 28 233.586 28V27ZM230.742 26.82L230.963 25.8449C230.806 25.8092 230.736 25.7651 230.712 25.7457C230.695 25.7325 230.686 25.7226 230.677 25.6952L229.734 26.028L228.791 26.3608C229.078 27.1759 229.754 27.621 230.52 27.7951L230.742 26.82ZM229.734 26.028L230.687 25.7271L228.347 18.3111L227.394 18.612L226.44 18.9129L228.78 26.3289L229.734 26.028ZM227.394 18.612L227.452 17.6137L226.84 17.5777L226.782 18.576L226.723 19.5743L227.335 19.6103L227.394 18.612ZM226.782 18.576H225.782V25.956H226.782H227.782V18.576H226.782ZM226.782 13.032V14.032H227.718V13.032V12.032H226.782V13.032ZM227.718 13.032V14.032C228.72 14.032 229.575 13.6167 230.124 12.7637C230.625 11.9861 230.806 10.9474 230.806 9.792H229.806H228.806C228.806 10.7966 228.638 11.3779 228.443 11.6803C228.297 11.9073 228.108 12.032 227.718 12.032V13.032ZM229.806 9.792H230.806C230.806 8.62902 230.615 7.5443 229.995 6.80786L229.23 7.452L228.465 8.09613C228.613 8.2717 228.806 8.74697 228.806 9.792H229.806ZM229.23 7.452L230.015 6.83235C229.509 6.19227 228.821 5.768 227.97 5.768V6.768V7.768C228.079 7.768 228.23 7.79973 228.445 8.07164L229.23 7.452ZM227.97 6.768V5.768H226.782V6.768V7.768H227.97V6.768ZM226.782 6.768H225.782V13.032H226.782H227.782V6.768H226.782ZM243.083 26.748L243.464 25.8233L243.083 26.748ZM243.263 1.872L243.71 2.76643L243.726 2.75844L243.742 2.7499L243.263 1.872ZM263.639 4.176L262.918 4.86874L262.923 4.87349L263.639 4.176ZM263.531 24.12L264.256 24.8088L264.26 24.8042L263.531 24.12ZM252.515 6.948L252.068 6.05357L251.515 6.32996V6.948H252.515ZM252.515 21.492H251.515V22.3923L252.411 22.4865L252.515 21.492ZM253.883 21.636L253.779 22.6305L253.831 22.636H253.883V21.636ZM255.503 19.908L254.555 19.5918L254.552 19.6007L254.549 19.6097L255.503 19.908ZM255.503 8.244L254.575 8.61539L255.503 8.244ZM253.955 27V26H245.459V27V28H253.955V27ZM245.459 27V26C244.892 26 244.437 25.9796 244.089 25.9426C243.724 25.9039 243.536 25.853 243.464 25.8233L243.083 26.748L242.702 27.6727C243.038 27.811 243.45 27.8861 243.878 27.9314C244.321 27.9784 244.851 28 245.459 28V27ZM243.083 26.748L243.464 25.8233C243.381 25.7893 243.395 25.7756 243.428 25.8206C243.445 25.8427 243.457 25.8682 243.465 25.8924C243.472 25.9156 243.471 25.9269 243.471 25.92H242.471H241.471C241.471 26.2993 241.576 26.679 241.82 27.0094C242.057 27.3304 242.377 27.5387 242.702 27.6727L243.083 26.748ZM242.471 25.92H243.471V3.204H242.471H241.471V25.92H242.471ZM242.471 3.204H243.471C243.471 3.03442 243.506 2.95214 243.529 2.91407C243.549 2.87928 243.593 2.82532 243.71 2.76643L243.263 1.872L242.816 0.977571C242.406 1.18268 242.053 1.48272 241.81 1.89192C241.568 2.29786 241.471 2.74958 241.471 3.204H242.471ZM243.263 1.872L243.742 2.7499C244.031 2.59207 244.719 2.44 245.999 2.44V1.44V0.439999C244.687 0.439999 243.551 0.57593 242.784 0.994104L243.263 1.872ZM245.999 1.44V2.44H254.099V1.44V0.439999H245.999V1.44ZM254.099 1.44V2.44C258.639 2.44 261.46 3.35109 262.918 4.86873L263.639 4.176L264.36 3.48327C262.314 1.35291 258.775 0.439999 254.099 0.439999V1.44ZM263.639 4.176L262.923 4.87349C264.387 6.37761 265.267 9.31641 265.267 14.04H266.267H267.267C267.267 9.21159 266.396 5.57439 264.356 3.47851L263.639 4.176ZM266.267 14.04H265.267C265.267 18.7443 264.358 21.7773 262.802 23.4358L263.531 24.12L264.26 24.8042C266.352 22.5747 267.267 18.8877 267.267 14.04H266.267ZM263.531 24.12L262.806 23.4312C261.269 25.0492 258.427 26 253.955 26V27V28C258.604 28 262.145 27.0308 264.256 24.8088L263.531 24.12ZM253.667 6.804V5.804C253.356 5.804 253.071 5.81675 252.823 5.84772C252.594 5.87638 252.316 5.92947 252.068 6.05357L252.515 6.948L252.962 7.84243C252.906 7.87053 252.917 7.85161 253.071 7.83228C253.208 7.81525 253.403 7.804 253.667 7.804V6.804ZM252.515 6.948H251.515V21.492H252.515H253.515V6.948H252.515ZM252.515 21.492L252.411 22.4865L253.779 22.6305L253.883 21.636L253.988 20.6415L252.62 20.4975L252.515 21.492ZM253.883 21.636V22.636C255.305 22.636 256.069 21.4511 256.458 20.2063L255.503 19.908L254.549 19.6097C254.392 20.1108 254.226 20.3848 254.099 20.5201C253.997 20.628 253.939 20.636 253.883 20.636V21.636ZM255.503 19.908L256.452 20.2242C256.892 18.9039 257.079 16.7666 257.079 13.932H256.079H255.079C255.079 16.7614 254.882 18.6081 254.555 19.5918L255.503 19.908ZM256.079 13.932H257.079C257.079 12.4968 257.031 11.2786 256.93 10.2852C256.831 9.3085 256.676 8.48368 256.432 7.87261L255.503 8.244L254.575 8.61539C254.714 8.96432 254.847 9.56749 254.94 10.4867C255.032 11.3894 255.079 12.5352 255.079 13.932H256.079ZM255.503 8.244L256.432 7.87261C256.195 7.28125 255.856 6.75588 255.373 6.37714C254.877 5.98771 254.292 5.804 253.667 5.804V6.804V7.804C253.883 7.804 254.024 7.86029 254.139 7.95085C254.268 8.05211 254.427 8.24674 254.575 8.61539L255.503 8.244Z" fill="#523FAB" mask="url(#path-1-outside-1_1_56)"/>
</svg>
