<svg width="55" height="23" viewBox="0 0 55 23" fill="none" xmlns="http://www.w3.org/2000/svg">
<path d="M12.8336 11V15.8418C12.8322 16.3916 12.6469 16.9189 12.319 17.3076C11.9912 17.6961 11.5471 17.9153 11.0836 17.917H2.91666C2.45298 17.9154 2.00821 17.6964 1.68033 17.3076C1.35246 16.9189 1.16806 16.3916 1.16666 15.8418V11H12.8336Z" fill="white"/>
<path d="M11.3636 7H9.62909C9.69515 6.8403 9.72843 6.67079 9.72727 6.5C9.72598 6.10254 9.55316 5.7217 9.24656 5.44065C8.93997 5.1596 8.5245 5.00119 8.09091 5C7.68699 5.00097 7.29799 5.14003 7 5.39C6.70202 5.14003 6.31301 5.00097 5.90909 5C5.4755 5.00119 5.06004 5.1596 4.75344 5.44065C4.44684 5.7217 4.27402 6.10254 4.27273 6.5C4.27157 6.67079 4.30485 6.8403 4.37091 7H2.63636C2.20277 7.00119 1.78731 7.1596 1.48071 7.44065C1.17411 7.7217 1.00129 8.10254 1 8.5V9.5C1 9.63261 1.05747 9.75979 1.15976 9.85355C1.26205 9.94732 1.40079 10 1.54545 10H6.45455V7H5.90909C5.80121 7 5.69575 6.97068 5.60605 6.91573C5.51635 6.86079 5.44644 6.7827 5.40516 6.69134C5.36387 6.59998 5.35307 6.49945 5.37412 6.40245C5.39516 6.30546 5.44711 6.21637 5.5234 6.14645C5.59968 6.07652 5.69687 6.0289 5.80268 6.00961C5.90849 5.99031 6.01816 6.00022 6.11783 6.03806C6.2175 6.0759 6.30268 6.13999 6.36262 6.22221C6.42256 6.30444 6.45455 6.40111 6.45455 6.5V7H7.54545V6.5C7.54545 6.40111 7.57745 6.30444 7.63738 6.22221C7.69732 6.13999 7.7825 6.0759 7.88217 6.03806C7.98184 6.00022 8.09151 5.99031 8.19732 6.00961C8.30313 6.0289 8.40032 6.07652 8.4766 6.14645C8.55289 6.21637 8.60484 6.30546 8.62588 6.40245C8.64693 6.49945 8.63613 6.59998 8.59484 6.69134C8.55356 6.7827 8.48365 6.86079 8.39395 6.91573C8.30425 6.97068 8.19879 7 8.09091 7H7.54545V10H12.4545C12.5992 10 12.7379 9.94732 12.8402 9.85355C12.9425 9.75979 13 9.63261 13 9.5V8.5C12.9987 8.10254 12.8259 7.7217 12.5193 7.44065C12.2127 7.1596 11.7972 7.00119 11.3636 7Z" fill="white"/>
<g clip-path="url(#clip0_1_2608)">
<mask id="mask0_1_2608" style="mask-type:luminance" maskUnits="userSpaceOnUse" x="4" y="12" width="6" height="5">
<path d="M4.5 12H9.5V17H4.5V12Z" fill="white"/>
</mask>
<g mask="url(#mask0_1_2608)">
<path fill-rule="evenodd" clip-rule="evenodd" d="M9.11125 15.1763C9.63156 14.8756 9.63156 14.1244 9.11125 13.8234L6.45344 12.2869C5.93281 11.9859 5.28125 12.3619 5.28125 12.9634V16.0366C5.28125 16.6381 5.93281 17.0141 6.45344 16.7128L9.11125 15.1763Z" fill="#5271F7"/>
</g>
</g>
<path d="M23.6543 7.46875H25.1191V13.1699C25.1191 13.8184 24.9785 14.3613 24.6973 14.7988C24.416 15.2363 24.0332 15.5664 23.5488 15.7891C23.0684 16.0078 22.5312 16.1172 21.9375 16.1172C21.3242 16.1172 20.7773 16.0078 20.2969 15.7891C19.8164 15.5664 19.4375 15.2363 19.1602 14.7988C18.8867 14.3613 18.75 13.8184 18.75 13.1699V7.46875H20.2148V13.1699C20.2148 13.5801 20.2852 13.918 20.4258 14.1836C20.5664 14.4453 20.7656 14.6387 21.0234 14.7637C21.2812 14.8887 21.5859 14.9512 21.9375 14.9512C22.2891 14.9512 22.5918 14.8887 22.8457 14.7637C23.1035 14.6387 23.3027 14.4453 23.4434 14.1836C23.584 13.918 23.6543 13.5801 23.6543 13.1699V7.46875ZM27.9785 11.0137V16H26.5664V9.66016H27.8965L27.9785 11.0137ZM27.7266 12.5957L27.2695 12.5898C27.2734 12.1406 27.3359 11.7285 27.457 11.3535C27.582 10.9785 27.7539 10.6562 27.9727 10.3867C28.1953 10.1172 28.4609 9.91016 28.7695 9.76562C29.0781 9.61719 29.4219 9.54297 29.8008 9.54297C30.1055 9.54297 30.3809 9.58594 30.627 9.67188C30.877 9.75391 31.0898 9.88867 31.2656 10.0762C31.4453 10.2637 31.582 10.5078 31.6758 10.8086C31.7695 11.1055 31.8164 11.4707 31.8164 11.9043V16H30.3984V11.8984C30.3984 11.5938 30.3535 11.3535 30.2637 11.1777C30.1777 10.998 30.0508 10.8711 29.8828 10.7969C29.7188 10.7188 29.5137 10.6797 29.2676 10.6797C29.0254 10.6797 28.8086 10.7305 28.6172 10.832C28.4258 10.9336 28.2637 11.0723 28.1309 11.248C28.002 11.4238 27.9023 11.627 27.832 11.8574C27.7617 12.0879 27.7266 12.334 27.7266 12.5957ZM34.7695 7V16H33.3516V7H34.7695ZM36.0469 12.9004V12.7656C36.0469 12.3086 36.1133 11.8848 36.2461 11.4941C36.3789 11.0996 36.5703 10.7578 36.8203 10.4688C37.0742 10.1758 37.3828 9.94922 37.7461 9.78906C38.1133 9.625 38.5273 9.54297 38.9883 9.54297C39.4531 9.54297 39.8672 9.625 40.2305 9.78906C40.5977 9.94922 40.9082 10.1758 41.1621 10.4688C41.416 10.7578 41.6094 11.0996 41.7422 11.4941C41.875 11.8848 41.9414 12.3086 41.9414 12.7656V12.9004C41.9414 13.3574 41.875 13.7812 41.7422 14.1719C41.6094 14.5625 41.416 14.9043 41.1621 15.1973C40.9082 15.4863 40.5996 15.7129 40.2363 15.877C39.873 16.0371 39.4609 16.1172 39 16.1172C38.5352 16.1172 38.1191 16.0371 37.752 15.877C37.3887 15.7129 37.0801 15.4863 36.8262 15.1973C36.5723 14.9043 36.3789 14.5625 36.2461 14.1719C36.1133 13.7812 36.0469 13.3574 36.0469 12.9004ZM37.459 12.7656V12.9004C37.459 13.1855 37.4883 13.4551 37.5469 13.709C37.6055 13.9629 37.6973 14.1855 37.8223 14.377C37.9473 14.5684 38.1074 14.7188 38.3027 14.8281C38.498 14.9375 38.7305 14.9922 39 14.9922C39.2617 14.9922 39.4883 14.9375 39.6797 14.8281C39.875 14.7188 40.0352 14.5684 40.1602 14.377C40.2852 14.1855 40.377 13.9629 40.4355 13.709C40.498 13.4551 40.5293 13.1855 40.5293 12.9004V12.7656C40.5293 12.4844 40.498 12.2188 40.4355 11.9688C40.377 11.7148 40.2832 11.4902 40.1543 11.2949C40.0293 11.0996 39.8691 10.9473 39.6738 10.8379C39.4824 10.7246 39.2539 10.668 38.9883 10.668C38.7227 10.668 38.4922 10.7246 38.2969 10.8379C38.1055 10.9473 37.9473 11.0996 37.8223 11.2949C37.6973 11.4902 37.6055 11.7148 37.5469 11.9688C37.4883 12.2188 37.459 12.4844 37.459 12.7656ZM45.7148 14.9922C45.9453 14.9922 46.1523 14.9473 46.3359 14.8574C46.5234 14.7637 46.6738 14.6348 46.7871 14.4707C46.9043 14.3066 46.9688 14.1172 46.9805 13.9023H48.3105C48.3027 14.3125 48.1816 14.6855 47.9473 15.0215C47.7129 15.3574 47.4023 15.625 47.0156 15.8242C46.6289 16.0195 46.2012 16.1172 45.7324 16.1172C45.248 16.1172 44.8262 16.0352 44.4668 15.8711C44.1074 15.7031 43.8086 15.4727 43.5703 15.1797C43.332 14.8867 43.1523 14.5488 43.0312 14.166C42.9141 13.7832 42.8555 13.373 42.8555 12.9355V12.7305C42.8555 12.293 42.9141 11.8828 43.0312 11.5C43.1523 11.1133 43.332 10.7734 43.5703 10.4805C43.8086 10.1875 44.1074 9.95898 44.4668 9.79492C44.8262 9.62695 45.2461 9.54297 45.7266 9.54297C46.2344 9.54297 46.6797 9.64453 47.0625 9.84766C47.4453 10.0469 47.7461 10.3262 47.9648 10.6855C48.1875 11.041 48.3027 11.4551 48.3105 11.9277H46.9805C46.9688 11.6934 46.9102 11.4824 46.8047 11.2949C46.7031 11.1035 46.5586 10.9512 46.3711 10.8379C46.1875 10.7246 45.9668 10.668 45.709 10.668C45.4238 10.668 45.1875 10.7266 45 10.8438C44.8125 10.957 44.666 11.1133 44.5605 11.3125C44.4551 11.5078 44.3789 11.7285 44.332 11.9746C44.2891 12.2168 44.2676 12.4688 44.2676 12.7305V12.9355C44.2676 13.1973 44.2891 13.4512 44.332 13.6973C44.375 13.9434 44.4492 14.1641 44.5547 14.3594C44.6641 14.5508 44.8125 14.7051 45 14.8223C45.1875 14.9355 45.4258 14.9922 45.7148 14.9922ZM50.8184 7V16H49.4004V7H50.8184ZM54.7559 9.66016L51.9961 12.7188L50.4844 14.2656L50.1152 13.0703L51.2578 11.6582L53.0508 9.66016H54.7559ZM53.3555 16L51.2988 13.0234L52.1895 12.0332L54.9902 16H53.3555Z" fill="white"/>
<defs>
<clipPath id="clip0_1_2608">
<rect width="5" height="5" fill="white" transform="translate(4.5 12)"/>
</clipPath>
</defs>
</svg>
